<?xml version="1.0" encoding="utf-8" standalone="no"?>
<!DOCTYPE svg PUBLIC "-//W3C//DTD SVG 1.1//EN"
  "http://www.w3.org/Graphics/SVG/1.1/DTD/svg11.dtd">
<svg xmlns:xlink="http://www.w3.org/1999/xlink" width="1168.678125pt" height="233.669687pt" viewBox="0 0 1168.678125 233.669687" xmlns="http://www.w3.org/2000/svg" version="1.1">
 <metadata>
  <rdf:RDF xmlns:dc="http://purl.org/dc/elements/1.1/" xmlns:cc="http://creativecommons.org/ns#" xmlns:rdf="http://www.w3.org/1999/02/22-rdf-syntax-ns#">
   <cc:Work>
    <dc:type rdf:resource="http://purl.org/dc/dcmitype/StillImage"/>
    <dc:date>2025-07-15T10:51:35.201594</dc:date>
    <dc:format>image/svg+xml</dc:format>
    <dc:creator>
     <cc:Agent>
      <dc:title>Matplotlib v3.10.1, https://matplotlib.org/</dc:title>
     </cc:Agent>
    </dc:creator>
   </cc:Work>
  </rdf:RDF>
 </metadata>
 <defs>
  <style type="text/css">*{stroke-linejoin: round; stroke-linecap: butt}</style>
 </defs>
 <g id="figure_1">
  <g id="patch_1">
   <path d="M 0 233.669687 
L 1168.678125 233.669687 
L 1168.678125 0 
L 0 0 
z
" style="fill: #ffffff"/>
  </g>
  <g id="axes_1">
   <g id="patch_2">
    <path d="M 45.478125 177.166645 
L 1161.478125 177.166645 
L 1161.478125 10.846645 
L 45.478125 10.846645 
z
" style="fill: #ffffff"/>
   </g>
   <g id="patch_3">
    <path d="M 55.940625 67949.660111 
L 65.705625 67949.660111 
L 65.705625 109.163674 
L 55.940625 109.163674 
z
" clip-path="url(#p7f189c9f7a)" style="fill: #f0da9e; stroke: #000000; stroke-linejoin: miter"/>
   </g>
   <g id="patch_4">
    <path d="M 125.690625 67949.660111 
L 135.455625 67949.660111 
L 135.455625 106.456074 
L 125.690625 106.456074 
z
" clip-path="url(#p7f189c9f7a)" style="fill: #f0da9e; stroke: #000000; stroke-linejoin: miter"/>
   </g>
   <g id="patch_5">
    <path d="M 195.440625 67949.660111 
L 205.205625 67949.660111 
L 205.205625 105.667833 
L 195.440625 105.667833 
z
" clip-path="url(#p7f189c9f7a)" style="fill: #f0da9e; stroke: #000000; stroke-linejoin: miter"/>
   </g>
   <g id="patch_6">
    <path d="M 265.190625 67949.660111 
L 274.955625 67949.660111 
L 274.955625 109.386004 
L 265.190625 109.386004 
z
" clip-path="url(#p7f189c9f7a)" style="fill: #f0da9e; stroke: #000000; stroke-linejoin: miter"/>
   </g>
   <g id="patch_7">
    <path d="M 334.940625 67949.660111 
L 344.705625 67949.660111 
L 344.705625 104.170968 
L 334.940625 104.170968 
z
" clip-path="url(#p7f189c9f7a)" style="fill: #f0da9e; stroke: #000000; stroke-linejoin: miter"/>
   </g>
   <g id="patch_8">
    <path d="M 404.690625 67949.660111 
L 414.455625 67949.660111 
L 414.455625 98.071784 
L 404.690625 98.071784 
z
" clip-path="url(#p7f189c9f7a)" style="fill: #f0da9e; stroke: #000000; stroke-linejoin: miter"/>
   </g>
   <g id="patch_9">
    <path d="M 474.440625 67949.660111 
L 484.205625 67949.660111 
L 484.205625 109.735793 
L 474.440625 109.735793 
z
" clip-path="url(#p7f189c9f7a)" style="fill: #f0da9e; stroke: #000000; stroke-linejoin: miter"/>
   </g>
   <g id="patch_10">
    <path d="M 544.190625 67949.660111 
L 553.955625 67949.660111 
L 553.955625 95.290479 
L 544.190625 95.290479 
z
" clip-path="url(#p7f189c9f7a)" style="fill: #f0da9e; stroke: #000000; stroke-linejoin: miter"/>
   </g>
   <g id="patch_11">
    <path d="M 613.940625 67949.660111 
L 623.705625 67949.660111 
L 623.705625 108.548001 
L 613.940625 108.548001 
z
" clip-path="url(#p7f189c9f7a)" style="fill: #f0da9e; stroke: #000000; stroke-linejoin: miter"/>
   </g>
   <g id="patch_12">
    <path d="M 683.690625 67949.660111 
L 693.455625 67949.660111 
L 693.455625 111.038981 
L 683.690625 111.038981 
z
" clip-path="url(#p7f189c9f7a)" style="fill: #f0da9e; stroke: #000000; stroke-linejoin: miter"/>
   </g>
   <g id="patch_13">
    <path d="M 753.440625 67949.660111 
L 763.205625 67949.660111 
L 763.205625 88.580329 
L 753.440625 88.580329 
z
" clip-path="url(#p7f189c9f7a)" style="fill: #f0da9e; stroke: #000000; stroke-linejoin: miter"/>
   </g>
   <g id="patch_14">
    <path d="M 823.190625 67949.660111 
L 832.955625 67949.660111 
L 832.955625 67.946239 
L 823.190625 67.946239 
z
" clip-path="url(#p7f189c9f7a)" style="fill: #f0da9e; stroke: #000000; stroke-linejoin: miter"/>
   </g>
   <g id="patch_15">
    <path d="M 892.940625 67949.660111 
L 902.705625 67949.660111 
L 902.705625 86.653149 
L 892.940625 86.653149 
z
" clip-path="url(#p7f189c9f7a)" style="fill: #f0da9e; stroke: #000000; stroke-linejoin: miter"/>
   </g>
   <g id="patch_16">
    <path d="M 962.690625 67949.660111 
L 972.455625 67949.660111 
L 972.455625 100.578129 
L 962.690625 100.578129 
z
" clip-path="url(#p7f189c9f7a)" style="fill: #f0da9e; stroke: #000000; stroke-linejoin: miter"/>
   </g>
   <g id="patch_17">
    <path d="M 1032.440625 67949.660111 
L 1042.205625 67949.660111 
L 1042.205625 96.8366 
L 1032.440625 96.8366 
z
" clip-path="url(#p7f189c9f7a)" style="fill: #f0da9e; stroke: #000000; stroke-linejoin: miter"/>
   </g>
   <g id="patch_18">
    <path d="M 1102.190625 67949.660111 
L 1111.955625 67949.660111 
L 1111.955625 99.043768 
L 1102.190625 99.043768 
z
" clip-path="url(#p7f189c9f7a)" style="fill: #f0da9e; stroke: #000000; stroke-linejoin: miter"/>
   </g>
   <g id="patch_19">
    <path d="M 65.705625 67949.660111 
L 75.470625 67949.660111 
L 75.470625 119.144455 
L 65.705625 119.144455 
z
" clip-path="url(#p7f189c9f7a)" style="fill: #9abdd2; stroke: #000000; stroke-linejoin: miter"/>
   </g>
   <g id="patch_20">
    <path d="M 135.455625 67949.660111 
L 145.220625 67949.660111 
L 145.220625 105.389412 
L 135.455625 105.389412 
z
" clip-path="url(#p7f189c9f7a)" style="fill: #9abdd2; stroke: #000000; stroke-linejoin: miter"/>
   </g>
   <g id="patch_21">
    <path d="M 205.205625 67949.660111 
L 214.970625 67949.660111 
L 214.970625 88.70716 
L 205.205625 88.70716 
z
" clip-path="url(#p7f189c9f7a)" style="fill: #9abdd2; stroke: #000000; stroke-linejoin: miter"/>
   </g>
   <g id="patch_22">
    <path d="M 274.955625 67949.660111 
L 284.720625 67949.660111 
L 284.720625 95.598294 
L 274.955625 95.598294 
z
" clip-path="url(#p7f189c9f7a)" style="fill: #9abdd2; stroke: #000000; stroke-linejoin: miter"/>
   </g>
   <g id="patch_23">
    <path d="M 344.705625 67949.660111 
L 354.470625 67949.660111 
L 354.470625 75.670933 
L 344.705625 75.670933 
z
" clip-path="url(#p7f189c9f7a)" style="fill: #9abdd2; stroke: #000000; stroke-linejoin: miter"/>
   </g>
   <g id="patch_24">
    <path d="M 414.455625 67949.660111 
L 424.220625 67949.660111 
L 424.220625 111.894981 
L 414.455625 111.894981 
z
" clip-path="url(#p7f189c9f7a)" style="fill: #9abdd2; stroke: #000000; stroke-linejoin: miter"/>
   </g>
   <g id="patch_25">
    <path d="M 484.205625 67949.660111 
L 493.970625 67949.660111 
L 493.970625 109.389498 
L 484.205625 109.389498 
z
" clip-path="url(#p7f189c9f7a)" style="fill: #9abdd2; stroke: #000000; stroke-linejoin: miter"/>
   </g>
   <g id="patch_26">
    <path d="M 553.955625 67949.660111 
L 563.720625 67949.660111 
L 563.720625 71.05458 
L 553.955625 71.05458 
z
" clip-path="url(#p7f189c9f7a)" style="fill: #9abdd2; stroke: #000000; stroke-linejoin: miter"/>
   </g>
   <g id="patch_27">
    <path d="M 623.705625 67949.660111 
L 633.470625 67949.660111 
L 633.470625 118.964459 
L 623.705625 118.964459 
z
" clip-path="url(#p7f189c9f7a)" style="fill: #9abdd2; stroke: #000000; stroke-linejoin: miter"/>
   </g>
   <g id="patch_28">
    <path d="M 693.455625 67949.660111 
L 703.220625 67949.660111 
L 703.220625 86.600506 
L 693.455625 86.600506 
z
" clip-path="url(#p7f189c9f7a)" style="fill: #9abdd2; stroke: #000000; stroke-linejoin: miter"/>
   </g>
   <g id="patch_29">
    <path d="M 763.205625 67949.660111 
L 772.970625 67949.660111 
L 772.970625 50.83765 
L 763.205625 50.83765 
z
" clip-path="url(#p7f189c9f7a)" style="fill: #9abdd2; stroke: #000000; stroke-linejoin: miter"/>
   </g>
   <g id="patch_30">
    <path d="M 832.955625 67949.660111 
L 842.720625 67949.660111 
L 842.720625 59.471482 
L 832.955625 59.471482 
z
" clip-path="url(#p7f189c9f7a)" style="fill: #9abdd2; stroke: #000000; stroke-linejoin: miter"/>
   </g>
   <g id="patch_31">
    <path d="M 902.705625 67949.660111 
L 912.470625 67949.660111 
L 912.470625 47.979299 
L 902.705625 47.979299 
z
" clip-path="url(#p7f189c9f7a)" style="fill: #9abdd2; stroke: #000000; stroke-linejoin: miter"/>
   </g>
   <g id="patch_32">
    <path d="M 972.455625 67949.660111 
L 982.220625 67949.660111 
L 982.220625 70.407433 
L 972.455625 70.407433 
z
" clip-path="url(#p7f189c9f7a)" style="fill: #9abdd2; stroke: #000000; stroke-linejoin: miter"/>
   </g>
   <g id="patch_33">
    <path d="M 1042.205625 67949.660111 
L 1051.970625 67949.660111 
L 1051.970625 111.22973 
L 1042.205625 111.22973 
z
" clip-path="url(#p7f189c9f7a)" style="fill: #9abdd2; stroke: #000000; stroke-linejoin: miter"/>
   </g>
   <g id="patch_34">
    <path d="M 1111.955625 67949.660111 
L 1121.720625 67949.660111 
L 1121.720625 115.357726 
L 1111.955625 115.357726 
z
" clip-path="url(#p7f189c9f7a)" style="fill: #9abdd2; stroke: #000000; stroke-linejoin: miter"/>
   </g>
   <g id="patch_35">
    <path d="M 75.470625 67949.660111 
L 85.235625 67949.660111 
L 85.235625 168.918731 
L 75.470625 168.918731 
z
" clip-path="url(#p7f189c9f7a)" style="fill: #5377a6; stroke: #000000; stroke-linejoin: miter"/>
   </g>
   <g id="patch_36">
    <path d="M 145.220625 67949.660111 
L 154.985625 67949.660111 
L 154.985625 165.973898 
L 145.220625 165.973898 
z
" clip-path="url(#p7f189c9f7a)" style="fill: #5377a6; stroke: #000000; stroke-linejoin: miter"/>
   </g>
   <g id="patch_37">
    <path d="M 214.970625 67949.660111 
L 224.735625 67949.660111 
L 224.735625 162.619015 
L 214.970625 162.619015 
z
" clip-path="url(#p7f189c9f7a)" style="fill: #5377a6; stroke: #000000; stroke-linejoin: miter"/>
   </g>
   <g id="patch_38">
    <path d="M 284.720625 67949.660111 
L 294.485625 67949.660111 
L 294.485625 160.332467 
L 284.720625 160.332467 
z
" clip-path="url(#p7f189c9f7a)" style="fill: #5377a6; stroke: #000000; stroke-linejoin: miter"/>
   </g>
   <g id="patch_39">
    <path d="M 354.470625 67949.660111 
L 364.235625 67949.660111 
L 364.235625 143.02111 
L 354.470625 143.02111 
z
" clip-path="url(#p7f189c9f7a)" style="fill: #5377a6; stroke: #000000; stroke-linejoin: miter"/>
   </g>
   <g id="patch_40">
    <path d="M 424.220625 67949.660111 
L 433.985625 67949.660111 
L 433.985625 160.051779 
L 424.220625 160.051779 
z
" clip-path="url(#p7f189c9f7a)" style="fill: #5377a6; stroke: #000000; stroke-linejoin: miter"/>
   </g>
   <g id="patch_41">
    <path d="M 493.970625 67949.660111 
L 503.735625 67949.660111 
L 503.735625 166.110905 
L 493.970625 166.110905 
z
" clip-path="url(#p7f189c9f7a)" style="fill: #5377a6; stroke: #000000; stroke-linejoin: miter"/>
   </g>
   <g id="patch_42">
    <path d="M 563.720625 67949.660111 
L 573.485625 67949.660111 
L 573.485625 146.365369 
L 563.720625 146.365369 
z
" clip-path="url(#p7f189c9f7a)" style="fill: #5377a6; stroke: #000000; stroke-linejoin: miter"/>
   </g>
   <g id="patch_43">
    <path d="M 633.470625 67949.660111 
L 643.235625 67949.660111 
L 643.235625 154.103755 
L 633.470625 154.103755 
z
" clip-path="url(#p7f189c9f7a)" style="fill: #5377a6; stroke: #000000; stroke-linejoin: miter"/>
   </g>
   <g id="patch_44">
    <path d="M 703.220625 67949.660111 
L 712.985625 67949.660111 
L 712.985625 167.879659 
L 703.220625 167.879659 
z
" clip-path="url(#p7f189c9f7a)" style="fill: #5377a6; stroke: #000000; stroke-linejoin: miter"/>
   </g>
   <g id="patch_45">
    <path d="M 772.970625 67949.660111 
L 782.735625 67949.660111 
L 782.735625 87.466698 
L 772.970625 87.466698 
z
" clip-path="url(#p7f189c9f7a)" style="fill: #5377a6; stroke: #000000; stroke-linejoin: miter"/>
   </g>
   <g id="patch_46">
    <path d="M 842.720625 67949.660111 
L 852.485625 67949.660111 
L 852.485625 86.463158 
L 842.720625 86.463158 
z
" clip-path="url(#p7f189c9f7a)" style="fill: #5377a6; stroke: #000000; stroke-linejoin: miter"/>
   </g>
   <g id="patch_47">
    <path d="M 912.470625 67949.660111 
L 922.235625 67949.660111 
L 922.235625 114.021142 
L 912.470625 114.021142 
z
" clip-path="url(#p7f189c9f7a)" style="fill: #5377a6; stroke: #000000; stroke-linejoin: miter"/>
   </g>
   <g id="patch_48">
    <path d="M 982.220625 67949.660111 
L 991.985625 67949.660111 
L 991.985625 144.928192 
L 982.220625 144.928192 
z
" clip-path="url(#p7f189c9f7a)" style="fill: #5377a6; stroke: #000000; stroke-linejoin: miter"/>
   </g>
   <g id="patch_49">
    <path d="M 1051.970625 67949.660111 
L 1061.735625 67949.660111 
L 1061.735625 167.230577 
L 1051.970625 167.230577 
z
" clip-path="url(#p7f189c9f7a)" style="fill: #5377a6; stroke: #000000; stroke-linejoin: miter"/>
   </g>
   <g id="patch_50">
    <path d="M 1121.720625 67949.660111 
L 1131.485625 67949.660111 
L 1131.485625 157.7942 
L 1121.720625 157.7942 
z
" clip-path="url(#p7f189c9f7a)" style="fill: #5377a6; stroke: #000000; stroke-linejoin: miter"/>
   </g>
   <g id="patch_51">
    <path d="M 85.235625 67949.660111 
L 95.000625 67949.660111 
L 95.000625 123.097428 
L 85.235625 123.097428 
z
" clip-path="url(#p7f189c9f7a)" style="fill: #e8946d; stroke: #000000; stroke-linejoin: miter"/>
   </g>
   <g id="patch_52">
    <path d="M 154.985625 67949.660111 
L 164.750625 67949.660111 
L 164.750625 93.145369 
L 154.985625 93.145369 
z
" clip-path="url(#p7f189c9f7a)" style="fill: #e8946d; stroke: #000000; stroke-linejoin: miter"/>
   </g>
   <g id="patch_53">
    <path d="M 224.735625 67949.660111 
L 234.500625 67949.660111 
L 234.500625 71.218016 
L 224.735625 71.218016 
z
" clip-path="url(#p7f189c9f7a)" style="fill: #e8946d; stroke: #000000; stroke-linejoin: miter"/>
   </g>
   <g id="patch_54">
    <path d="M 294.485625 67949.660111 
L 304.250625 67949.660111 
L 304.250625 86.482038 
L 294.485625 86.482038 
z
" clip-path="url(#p7f189c9f7a)" style="fill: #e8946d; stroke: #000000; stroke-linejoin: miter"/>
   </g>
   <g id="patch_55">
    <path d="M 364.235625 67949.660111 
L 374.000625 67949.660111 
L 374.000625 53.265373 
L 364.235625 53.265373 
z
" clip-path="url(#p7f189c9f7a)" style="fill: #e8946d; stroke: #000000; stroke-linejoin: miter"/>
   </g>
   <g id="patch_56">
    <path d="M 433.985625 67949.660111 
L 443.750625 67949.660111 
L 443.750625 100.544701 
L 433.985625 100.544701 
z
" clip-path="url(#p7f189c9f7a)" style="fill: #e8946d; stroke: #000000; stroke-linejoin: miter"/>
   </g>
   <g id="patch_57">
    <path d="M 503.735625 67949.660111 
L 513.500625 67949.660111 
L 513.500625 95.006765 
L 503.735625 95.006765 
z
" clip-path="url(#p7f189c9f7a)" style="fill: #e8946d; stroke: #000000; stroke-linejoin: miter"/>
   </g>
   <g id="patch_58">
    <path d="M 573.485625 67949.660111 
L 583.250625 67949.660111 
L 583.250625 48.545684 
L 573.485625 48.545684 
z
" clip-path="url(#p7f189c9f7a)" style="fill: #e8946d; stroke: #000000; stroke-linejoin: miter"/>
   </g>
   <g id="patch_59">
    <path d="M 643.235625 67949.660111 
L 653.000625 67949.660111 
L 653.000625 112.152713 
L 643.235625 112.152713 
z
" clip-path="url(#p7f189c9f7a)" style="fill: #e8946d; stroke: #000000; stroke-linejoin: miter"/>
   </g>
   <g id="patch_60">
    <path d="M 712.985625 67949.660111 
L 722.750625 67949.660111 
L 722.750625 91.326985 
L 712.985625 91.326985 
z
" clip-path="url(#p7f189c9f7a)" style="fill: #e8946d; stroke: #000000; stroke-linejoin: miter"/>
   </g>
   <g id="patch_61">
    <path d="M 782.735625 67949.660111 
L 792.500625 67949.660111 
L 792.500625 23.436044 
L 782.735625 23.436044 
z
" clip-path="url(#p7f189c9f7a)" style="fill: #e8946d; stroke: #000000; stroke-linejoin: miter"/>
   </g>
   <g id="patch_62">
    <path d="M 852.485625 67949.660111 
L 862.250625 67949.660111 
L 862.250625 39.566185 
L 852.485625 39.566185 
z
" clip-path="url(#p7f189c9f7a)" style="fill: #e8946d; stroke: #000000; stroke-linejoin: miter"/>
   </g>
   <g id="patch_63">
    <path d="M 922.235625 67949.660111 
L 932.000625 67949.660111 
L 932.000625 18.716443 
L 922.235625 18.716443 
z
" clip-path="url(#p7f189c9f7a)" style="fill: #e8946d; stroke: #000000; stroke-linejoin: miter"/>
   </g>
   <g id="patch_64">
    <path d="M 991.985625 67949.660111 
L 1001.750625 67949.660111 
L 1001.750625 46.259177 
L 991.985625 46.259177 
z
" clip-path="url(#p7f189c9f7a)" style="fill: #e8946d; stroke: #000000; stroke-linejoin: miter"/>
   </g>
   <g id="patch_65">
    <path d="M 1061.735625 67949.660111 
L 1071.500625 67949.660111 
L 1071.500625 109.226788 
L 1061.735625 109.226788 
z
" clip-path="url(#p7f189c9f7a)" style="fill: #e8946d; stroke: #000000; stroke-linejoin: miter"/>
   </g>
   <g id="patch_66">
    <path d="M 1131.485625 67949.660111 
L 1141.250625 67949.660111 
L 1141.250625 111.159482 
L 1131.485625 111.159482 
z
" clip-path="url(#p7f189c9f7a)" style="fill: #e8946d; stroke: #000000; stroke-linejoin: miter"/>
   </g>
   <g id="patch_67">
    <path d="M 95.000625 67949.660111 
L 104.765625 67949.660111 
L 104.765625 149.759873 
L 95.000625 149.759873 
z
" clip-path="url(#p7f189c9f7a)" style="fill: #c1443d; stroke: #000000; stroke-linejoin: miter"/>
   </g>
   <g id="patch_68">
    <path d="M 164.750625 67949.660111 
L 174.515625 67949.660111 
L 174.515625 146.482504 
L 164.750625 146.482504 
z
" clip-path="url(#p7f189c9f7a)" style="fill: #c1443d; stroke: #000000; stroke-linejoin: miter"/>
   </g>
   <g id="patch_69">
    <path d="M 234.500625 67949.660111 
L 244.265625 67949.660111 
L 244.265625 136.976531 
L 234.500625 136.976531 
z
" clip-path="url(#p7f189c9f7a)" style="fill: #c1443d; stroke: #000000; stroke-linejoin: miter"/>
   </g>
   <g id="patch_70">
    <path d="M 304.250625 67949.660111 
L 314.015625 67949.660111 
L 314.015625 136.552151 
L 304.250625 136.552151 
z
" clip-path="url(#p7f189c9f7a)" style="fill: #c1443d; stroke: #000000; stroke-linejoin: miter"/>
   </g>
   <g id="patch_71">
    <path d="M 374.000625 67949.660111 
L 383.765625 67949.660111 
L 383.765625 129.143166 
L 374.000625 129.143166 
z
" clip-path="url(#p7f189c9f7a)" style="fill: #c1443d; stroke: #000000; stroke-linejoin: miter"/>
   </g>
   <g id="patch_72">
    <path d="M 443.750625 67949.660111 
L 453.515625 67949.660111 
L 453.515625 144.6228 
L 443.750625 144.6228 
z
" clip-path="url(#p7f189c9f7a)" style="fill: #c1443d; stroke: #000000; stroke-linejoin: miter"/>
   </g>
   <g id="patch_73">
    <path d="M 513.500625 67949.660111 
L 523.265625 67949.660111 
L 523.265625 149.595235 
L 513.500625 149.595235 
z
" clip-path="url(#p7f189c9f7a)" style="fill: #c1443d; stroke: #000000; stroke-linejoin: miter"/>
   </g>
   <g id="patch_74">
    <path d="M 583.250625 67949.660111 
L 593.015625 67949.660111 
L 593.015625 121.793984 
L 583.250625 121.793984 
z
" clip-path="url(#p7f189c9f7a)" style="fill: #c1443d; stroke: #000000; stroke-linejoin: miter"/>
   </g>
   <g id="patch_75">
    <path d="M 653.000625 67949.660111 
L 662.765625 67949.660111 
L 662.765625 131.707685 
L 653.000625 131.707685 
z
" clip-path="url(#p7f189c9f7a)" style="fill: #c1443d; stroke: #000000; stroke-linejoin: miter"/>
   </g>
   <g id="patch_76">
    <path d="M 722.750625 67949.660111 
L 732.515625 67949.660111 
L 732.515625 145.466527 
L 722.750625 145.466527 
z
" clip-path="url(#p7f189c9f7a)" style="fill: #c1443d; stroke: #000000; stroke-linejoin: miter"/>
   </g>
   <g id="patch_77">
    <path d="M 792.500625 67949.660111 
L 802.265625 67949.660111 
L 802.265625 61.829301 
L 792.500625 61.829301 
z
" clip-path="url(#p7f189c9f7a)" style="fill: #c1443d; stroke: #000000; stroke-linejoin: miter"/>
   </g>
   <g id="patch_78">
    <path d="M 862.250625 67949.660111 
L 872.015625 67949.660111 
L 872.015625 70.821566 
L 862.250625 70.821566 
z
" clip-path="url(#p7f189c9f7a)" style="fill: #c1443d; stroke: #000000; stroke-linejoin: miter"/>
   </g>
   <g id="patch_79">
    <path d="M 932.000625 67949.660111 
L 941.765625 67949.660111 
L 941.765625 93.435383 
L 932.000625 93.435383 
z
" clip-path="url(#p7f189c9f7a)" style="fill: #c1443d; stroke: #000000; stroke-linejoin: miter"/>
   </g>
   <g id="patch_80">
    <path d="M 1001.750625 67949.660111 
L 1011.515625 67949.660111 
L 1011.515625 127.395266 
L 1001.750625 127.395266 
z
" clip-path="url(#p7f189c9f7a)" style="fill: #c1443d; stroke: #000000; stroke-linejoin: miter"/>
   </g>
   <g id="patch_81">
    <path d="M 1071.500625 67949.660111 
L 1081.265625 67949.660111 
L 1081.265625 150.59719 
L 1071.500625 150.59719 
z
" clip-path="url(#p7f189c9f7a)" style="fill: #c1443d; stroke: #000000; stroke-linejoin: miter"/>
   </g>
   <g id="patch_82">
    <path d="M 1141.250625 67949.660111 
L 1151.015625 67949.660111 
L 1151.015625 144.346855 
L 1141.250625 144.346855 
z
" clip-path="url(#p7f189c9f7a)" style="fill: #c1443d; stroke: #000000; stroke-linejoin: miter"/>
   </g>
   <g id="patch_83">
    <path d="M 80.353125 67949.660111 
L 80.353125 67949.660111 
L 80.353125 67949.660111 
L 80.353125 67949.660111 
z
" clip-path="url(#p7f189c9f7a)" style="fill: #f0da9e; stroke: #000000; stroke-linejoin: miter"/>
   </g>
   <g id="patch_84">
    <path d="M 80.353125 67949.660111 
L 80.353125 67949.660111 
L 80.353125 67949.660111 
L 80.353125 67949.660111 
z
" clip-path="url(#p7f189c9f7a)" style="fill: #9abdd2; stroke: #000000; stroke-linejoin: miter"/>
   </g>
   <g id="patch_85">
    <path d="M 80.353125 67949.660111 
L 80.353125 67949.660111 
L 80.353125 67949.660111 
L 80.353125 67949.660111 
z
" clip-path="url(#p7f189c9f7a)" style="fill: #5377a6; stroke: #000000; stroke-linejoin: miter"/>
   </g>
   <g id="patch_86">
    <path d="M 80.353125 67949.660111 
L 80.353125 67949.660111 
L 80.353125 67949.660111 
L 80.353125 67949.660111 
z
" clip-path="url(#p7f189c9f7a)" style="fill: #e8946d; stroke: #000000; stroke-linejoin: miter"/>
   </g>
   <g id="patch_87">
    <path d="M 80.353125 67949.660111 
L 80.353125 67949.660111 
L 80.353125 67949.660111 
L 80.353125 67949.660111 
z
" clip-path="url(#p7f189c9f7a)" style="fill: #c1443d; stroke: #000000; stroke-linejoin: miter"/>
   </g>
   <g id="matplotlib.axis_1">
    <g id="xtick_1">
     <g id="line2d_1">
      <defs>
       <path id="m3b9d8819e8" d="M 0 0 
L 0 3.5 
" style="stroke: #000000; stroke-width: 0.8"/>
      </defs>
      <g>
       <use xlink:href="#m3b9d8819e8" x="80.353125" y="177.166645" style="stroke: #000000; stroke-width: 0.8"/>
      </g>
     </g>
     <g id="text_1">
      <!-- bcircuit -->
      <g transform="translate(44.830623 203.977083) rotate(-20) scale(0.1 -0.1)">
       <defs>
        <path id="DejaVuSans-62" d="M 3116 1747 
Q 3116 2381 2855 2742 
Q 2594 3103 2138 3103 
Q 1681 3103 1420 2742 
Q 1159 2381 1159 1747 
Q 1159 1113 1420 752 
Q 1681 391 2138 391 
Q 2594 391 2855 752 
Q 3116 1113 3116 1747 
z
M 1159 2969 
Q 1341 3281 1617 3432 
Q 1894 3584 2278 3584 
Q 2916 3584 3314 3078 
Q 3713 2572 3713 1747 
Q 3713 922 3314 415 
Q 2916 -91 2278 -91 
Q 1894 -91 1617 61 
Q 1341 213 1159 525 
L 1159 0 
L 581 0 
L 581 4863 
L 1159 4863 
L 1159 2969 
z
" transform="scale(0.015625)"/>
        <path id="DejaVuSans-63" d="M 3122 3366 
L 3122 2828 
Q 2878 2963 2633 3030 
Q 2388 3097 2138 3097 
Q 1578 3097 1268 2742 
Q 959 2388 959 1747 
Q 959 1106 1268 751 
Q 1578 397 2138 397 
Q 2388 397 2633 464 
Q 2878 531 3122 666 
L 3122 134 
Q 2881 22 2623 -34 
Q 2366 -91 2075 -91 
Q 1284 -91 818 406 
Q 353 903 353 1747 
Q 353 2603 823 3093 
Q 1294 3584 2113 3584 
Q 2378 3584 2631 3529 
Q 2884 3475 3122 3366 
z
" transform="scale(0.015625)"/>
        <path id="DejaVuSans-69" d="M 603 3500 
L 1178 3500 
L 1178 0 
L 603 0 
L 603 3500 
z
M 603 4863 
L 1178 4863 
L 1178 4134 
L 603 4134 
L 603 4863 
z
" transform="scale(0.015625)"/>
        <path id="DejaVuSans-72" d="M 2631 2963 
Q 2534 3019 2420 3045 
Q 2306 3072 2169 3072 
Q 1681 3072 1420 2755 
Q 1159 2438 1159 1844 
L 1159 0 
L 581 0 
L 581 3500 
L 1159 3500 
L 1159 2956 
Q 1341 3275 1631 3429 
Q 1922 3584 2338 3584 
Q 2397 3584 2469 3576 
Q 2541 3569 2628 3553 
L 2631 2963 
z
" transform="scale(0.015625)"/>
        <path id="DejaVuSans-75" d="M 544 1381 
L 544 3500 
L 1119 3500 
L 1119 1403 
Q 1119 906 1312 657 
Q 1506 409 1894 409 
Q 2359 409 2629 706 
Q 2900 1003 2900 1516 
L 2900 3500 
L 3475 3500 
L 3475 0 
L 2900 0 
L 2900 538 
Q 2691 219 2414 64 
Q 2138 -91 1772 -91 
Q 1169 -91 856 284 
Q 544 659 544 1381 
z
M 1991 3584 
L 1991 3584 
z
" transform="scale(0.015625)"/>
        <path id="DejaVuSans-74" d="M 1172 4494 
L 1172 3500 
L 2356 3500 
L 2356 3053 
L 1172 3053 
L 1172 1153 
Q 1172 725 1289 603 
Q 1406 481 1766 481 
L 2356 481 
L 2356 0 
L 1766 0 
Q 1100 0 847 248 
Q 594 497 594 1153 
L 594 3053 
L 172 3053 
L 172 3500 
L 594 3500 
L 594 4494 
L 1172 4494 
z
" transform="scale(0.015625)"/>
       </defs>
       <use xlink:href="#DejaVuSans-62"/>
       <use xlink:href="#DejaVuSans-63" transform="translate(63.476562 0)"/>
       <use xlink:href="#DejaVuSans-69" transform="translate(118.457031 0)"/>
       <use xlink:href="#DejaVuSans-72" transform="translate(146.240234 0)"/>
       <use xlink:href="#DejaVuSans-63" transform="translate(185.103516 0)"/>
       <use xlink:href="#DejaVuSans-75" transform="translate(240.083984 0)"/>
       <use xlink:href="#DejaVuSans-69" transform="translate(303.462891 0)"/>
       <use xlink:href="#DejaVuSans-74" transform="translate(331.246094 0)"/>
      </g>
     </g>
    </g>
    <g id="xtick_2">
     <g id="line2d_2">
      <g>
       <use xlink:href="#m3b9d8819e8" x="150.103125" y="177.166645" style="stroke: #000000; stroke-width: 0.8"/>
      </g>
     </g>
     <g id="text_2">
      <!-- struct3 -->
      <g transform="translate(116.164886 203.400459) rotate(-20) scale(0.1 -0.1)">
       <defs>
        <path id="DejaVuSans-73" d="M 2834 3397 
L 2834 2853 
Q 2591 2978 2328 3040 
Q 2066 3103 1784 3103 
Q 1356 3103 1142 2972 
Q 928 2841 928 2578 
Q 928 2378 1081 2264 
Q 1234 2150 1697 2047 
L 1894 2003 
Q 2506 1872 2764 1633 
Q 3022 1394 3022 966 
Q 3022 478 2636 193 
Q 2250 -91 1575 -91 
Q 1294 -91 989 -36 
Q 684 19 347 128 
L 347 722 
Q 666 556 975 473 
Q 1284 391 1588 391 
Q 1994 391 2212 530 
Q 2431 669 2431 922 
Q 2431 1156 2273 1281 
Q 2116 1406 1581 1522 
L 1381 1569 
Q 847 1681 609 1914 
Q 372 2147 372 2553 
Q 372 3047 722 3315 
Q 1072 3584 1716 3584 
Q 2034 3584 2315 3537 
Q 2597 3491 2834 3397 
z
" transform="scale(0.015625)"/>
        <path id="DejaVuSans-33" d="M 2597 2516 
Q 3050 2419 3304 2112 
Q 3559 1806 3559 1356 
Q 3559 666 3084 287 
Q 2609 -91 1734 -91 
Q 1441 -91 1130 -33 
Q 819 25 488 141 
L 488 750 
Q 750 597 1062 519 
Q 1375 441 1716 441 
Q 2309 441 2620 675 
Q 2931 909 2931 1356 
Q 2931 1769 2642 2001 
Q 2353 2234 1838 2234 
L 1294 2234 
L 1294 2753 
L 1863 2753 
Q 2328 2753 2575 2939 
Q 2822 3125 2822 3475 
Q 2822 3834 2567 4026 
Q 2313 4219 1838 4219 
Q 1578 4219 1281 4162 
Q 984 4106 628 3988 
L 628 4550 
Q 988 4650 1302 4700 
Q 1616 4750 1894 4750 
Q 2613 4750 3031 4423 
Q 3450 4097 3450 3541 
Q 3450 3153 3228 2886 
Q 3006 2619 2597 2516 
z
" transform="scale(0.015625)"/>
       </defs>
       <use xlink:href="#DejaVuSans-73"/>
       <use xlink:href="#DejaVuSans-74" transform="translate(52.099609 0)"/>
       <use xlink:href="#DejaVuSans-72" transform="translate(91.308594 0)"/>
       <use xlink:href="#DejaVuSans-75" transform="translate(132.421875 0)"/>
       <use xlink:href="#DejaVuSans-63" transform="translate(195.800781 0)"/>
       <use xlink:href="#DejaVuSans-74" transform="translate(250.78125 0)"/>
       <use xlink:href="#DejaVuSans-33" transform="translate(289.990234 0)"/>
      </g>
     </g>
    </g>
    <g id="xtick_3">
     <g id="line2d_3">
      <g>
       <use xlink:href="#m3b9d8819e8" x="219.853125" y="177.166645" style="stroke: #000000; stroke-width: 0.8"/>
      </g>
     </g>
     <g id="text_3">
      <!-- H2O -->
      <g transform="translate(198.699111 198.747382) rotate(-20) scale(0.1 -0.1)">
       <defs>
        <path id="DejaVuSans-48" d="M 628 4666 
L 1259 4666 
L 1259 2753 
L 3553 2753 
L 3553 4666 
L 4184 4666 
L 4184 0 
L 3553 0 
L 3553 2222 
L 1259 2222 
L 1259 0 
L 628 0 
L 628 4666 
z
" transform="scale(0.015625)"/>
        <path id="DejaVuSans-32" d="M 1228 531 
L 3431 531 
L 3431 0 
L 469 0 
L 469 531 
Q 828 903 1448 1529 
Q 2069 2156 2228 2338 
Q 2531 2678 2651 2914 
Q 2772 3150 2772 3378 
Q 2772 3750 2511 3984 
Q 2250 4219 1831 4219 
Q 1534 4219 1204 4116 
Q 875 4013 500 3803 
L 500 4441 
Q 881 4594 1212 4672 
Q 1544 4750 1819 4750 
Q 2544 4750 2975 4387 
Q 3406 4025 3406 3419 
Q 3406 3131 3298 2873 
Q 3191 2616 2906 2266 
Q 2828 2175 2409 1742 
Q 1991 1309 1228 531 
z
" transform="scale(0.015625)"/>
        <path id="DejaVuSans-4f" d="M 2522 4238 
Q 1834 4238 1429 3725 
Q 1025 3213 1025 2328 
Q 1025 1447 1429 934 
Q 1834 422 2522 422 
Q 3209 422 3611 934 
Q 4013 1447 4013 2328 
Q 4013 3213 3611 3725 
Q 3209 4238 2522 4238 
z
M 2522 4750 
Q 3503 4750 4090 4092 
Q 4678 3434 4678 2328 
Q 4678 1225 4090 567 
Q 3503 -91 2522 -91 
Q 1538 -91 948 565 
Q 359 1222 359 2328 
Q 359 3434 948 4092 
Q 1538 4750 2522 4750 
z
" transform="scale(0.015625)"/>
       </defs>
       <use xlink:href="#DejaVuSans-48"/>
       <use xlink:href="#DejaVuSans-32" transform="translate(75.195312 0)"/>
       <use xlink:href="#DejaVuSans-4f" transform="translate(138.818359 0)"/>
      </g>
     </g>
    </g>
    <g id="xtick_4">
     <g id="line2d_4">
      <g>
       <use xlink:href="#m3b9d8819e8" x="289.603125" y="177.166645" style="stroke: #000000; stroke-width: 0.8"/>
      </g>
     </g>
     <g id="text_4">
      <!-- qa8fm -->
      <g transform="translate(258.727697 202.285687) rotate(-20) scale(0.1 -0.1)">
       <defs>
        <path id="DejaVuSans-71" d="M 947 1747 
Q 947 1113 1208 752 
Q 1469 391 1925 391 
Q 2381 391 2643 752 
Q 2906 1113 2906 1747 
Q 2906 2381 2643 2742 
Q 2381 3103 1925 3103 
Q 1469 3103 1208 2742 
Q 947 2381 947 1747 
z
M 2906 525 
Q 2725 213 2448 61 
Q 2172 -91 1784 -91 
Q 1150 -91 751 415 
Q 353 922 353 1747 
Q 353 2572 751 3078 
Q 1150 3584 1784 3584 
Q 2172 3584 2448 3432 
Q 2725 3281 2906 2969 
L 2906 3500 
L 3481 3500 
L 3481 -1331 
L 2906 -1331 
L 2906 525 
z
" transform="scale(0.015625)"/>
        <path id="DejaVuSans-61" d="M 2194 1759 
Q 1497 1759 1228 1600 
Q 959 1441 959 1056 
Q 959 750 1161 570 
Q 1363 391 1709 391 
Q 2188 391 2477 730 
Q 2766 1069 2766 1631 
L 2766 1759 
L 2194 1759 
z
M 3341 1997 
L 3341 0 
L 2766 0 
L 2766 531 
Q 2569 213 2275 61 
Q 1981 -91 1556 -91 
Q 1019 -91 701 211 
Q 384 513 384 1019 
Q 384 1609 779 1909 
Q 1175 2209 1959 2209 
L 2766 2209 
L 2766 2266 
Q 2766 2663 2505 2880 
Q 2244 3097 1772 3097 
Q 1472 3097 1187 3025 
Q 903 2953 641 2809 
L 641 3341 
Q 956 3463 1253 3523 
Q 1550 3584 1831 3584 
Q 2591 3584 2966 3190 
Q 3341 2797 3341 1997 
z
" transform="scale(0.015625)"/>
        <path id="DejaVuSans-38" d="M 2034 2216 
Q 1584 2216 1326 1975 
Q 1069 1734 1069 1313 
Q 1069 891 1326 650 
Q 1584 409 2034 409 
Q 2484 409 2743 651 
Q 3003 894 3003 1313 
Q 3003 1734 2745 1975 
Q 2488 2216 2034 2216 
z
M 1403 2484 
Q 997 2584 770 2862 
Q 544 3141 544 3541 
Q 544 4100 942 4425 
Q 1341 4750 2034 4750 
Q 2731 4750 3128 4425 
Q 3525 4100 3525 3541 
Q 3525 3141 3298 2862 
Q 3072 2584 2669 2484 
Q 3125 2378 3379 2068 
Q 3634 1759 3634 1313 
Q 3634 634 3220 271 
Q 2806 -91 2034 -91 
Q 1263 -91 848 271 
Q 434 634 434 1313 
Q 434 1759 690 2068 
Q 947 2378 1403 2484 
z
M 1172 3481 
Q 1172 3119 1398 2916 
Q 1625 2713 2034 2713 
Q 2441 2713 2670 2916 
Q 2900 3119 2900 3481 
Q 2900 3844 2670 4047 
Q 2441 4250 2034 4250 
Q 1625 4250 1398 4047 
Q 1172 3844 1172 3481 
z
" transform="scale(0.015625)"/>
        <path id="DejaVuSans-66" d="M 2375 4863 
L 2375 4384 
L 1825 4384 
Q 1516 4384 1395 4259 
Q 1275 4134 1275 3809 
L 1275 3500 
L 2222 3500 
L 2222 3053 
L 1275 3053 
L 1275 0 
L 697 0 
L 697 3053 
L 147 3053 
L 147 3500 
L 697 3500 
L 697 3744 
Q 697 4328 969 4595 
Q 1241 4863 1831 4863 
L 2375 4863 
z
" transform="scale(0.015625)"/>
        <path id="DejaVuSans-6d" d="M 3328 2828 
Q 3544 3216 3844 3400 
Q 4144 3584 4550 3584 
Q 5097 3584 5394 3201 
Q 5691 2819 5691 2113 
L 5691 0 
L 5113 0 
L 5113 2094 
Q 5113 2597 4934 2840 
Q 4756 3084 4391 3084 
Q 3944 3084 3684 2787 
Q 3425 2491 3425 1978 
L 3425 0 
L 2847 0 
L 2847 2094 
Q 2847 2600 2669 2842 
Q 2491 3084 2119 3084 
Q 1678 3084 1418 2786 
Q 1159 2488 1159 1978 
L 1159 0 
L 581 0 
L 581 3500 
L 1159 3500 
L 1159 2956 
Q 1356 3278 1631 3431 
Q 1906 3584 2284 3584 
Q 2666 3584 2933 3390 
Q 3200 3197 3328 2828 
z
" transform="scale(0.015625)"/>
       </defs>
       <use xlink:href="#DejaVuSans-71"/>
       <use xlink:href="#DejaVuSans-61" transform="translate(63.476562 0)"/>
       <use xlink:href="#DejaVuSans-38" transform="translate(124.755859 0)"/>
       <use xlink:href="#DejaVuSans-66" transform="translate(188.378906 0)"/>
       <use xlink:href="#DejaVuSans-6d" transform="translate(223.583984 0)"/>
      </g>
     </g>
    </g>
    <g id="xtick_5">
     <g id="line2d_5">
      <g>
       <use xlink:href="#m3b9d8819e8" x="359.353125" y="177.166645" style="stroke: #000000; stroke-width: 0.8"/>
      </g>
     </g>
     <g id="text_5">
      <!-- laminar_duct3D -->
      <g transform="translate(284.152415 218.384147) rotate(-20) scale(0.1 -0.1)">
       <defs>
        <path id="DejaVuSans-6c" d="M 603 4863 
L 1178 4863 
L 1178 0 
L 603 0 
L 603 4863 
z
" transform="scale(0.015625)"/>
        <path id="DejaVuSans-6e" d="M 3513 2113 
L 3513 0 
L 2938 0 
L 2938 2094 
Q 2938 2591 2744 2837 
Q 2550 3084 2163 3084 
Q 1697 3084 1428 2787 
Q 1159 2491 1159 1978 
L 1159 0 
L 581 0 
L 581 3500 
L 1159 3500 
L 1159 2956 
Q 1366 3272 1645 3428 
Q 1925 3584 2291 3584 
Q 2894 3584 3203 3211 
Q 3513 2838 3513 2113 
z
" transform="scale(0.015625)"/>
        <path id="DejaVuSans-5f" d="M 3263 -1063 
L 3263 -1509 
L -63 -1509 
L -63 -1063 
L 3263 -1063 
z
" transform="scale(0.015625)"/>
        <path id="DejaVuSans-64" d="M 2906 2969 
L 2906 4863 
L 3481 4863 
L 3481 0 
L 2906 0 
L 2906 525 
Q 2725 213 2448 61 
Q 2172 -91 1784 -91 
Q 1150 -91 751 415 
Q 353 922 353 1747 
Q 353 2572 751 3078 
Q 1150 3584 1784 3584 
Q 2172 3584 2448 3432 
Q 2725 3281 2906 2969 
z
M 947 1747 
Q 947 1113 1208 752 
Q 1469 391 1925 391 
Q 2381 391 2643 752 
Q 2906 1113 2906 1747 
Q 2906 2381 2643 2742 
Q 2381 3103 1925 3103 
Q 1469 3103 1208 2742 
Q 947 2381 947 1747 
z
" transform="scale(0.015625)"/>
        <path id="DejaVuSans-44" d="M 1259 4147 
L 1259 519 
L 2022 519 
Q 2988 519 3436 956 
Q 3884 1394 3884 2338 
Q 3884 3275 3436 3711 
Q 2988 4147 2022 4147 
L 1259 4147 
z
M 628 4666 
L 1925 4666 
Q 3281 4666 3915 4102 
Q 4550 3538 4550 2338 
Q 4550 1131 3912 565 
Q 3275 0 1925 0 
L 628 0 
L 628 4666 
z
" transform="scale(0.015625)"/>
       </defs>
       <use xlink:href="#DejaVuSans-6c"/>
       <use xlink:href="#DejaVuSans-61" transform="translate(27.783203 0)"/>
       <use xlink:href="#DejaVuSans-6d" transform="translate(89.0625 0)"/>
       <use xlink:href="#DejaVuSans-69" transform="translate(186.474609 0)"/>
       <use xlink:href="#DejaVuSans-6e" transform="translate(214.257812 0)"/>
       <use xlink:href="#DejaVuSans-61" transform="translate(277.636719 0)"/>
       <use xlink:href="#DejaVuSans-72" transform="translate(338.916016 0)"/>
       <use xlink:href="#DejaVuSans-5f" transform="translate(380.029297 0)"/>
       <use xlink:href="#DejaVuSans-64" transform="translate(430.029297 0)"/>
       <use xlink:href="#DejaVuSans-75" transform="translate(493.505859 0)"/>
       <use xlink:href="#DejaVuSans-63" transform="translate(556.884766 0)"/>
       <use xlink:href="#DejaVuSans-74" transform="translate(611.865234 0)"/>
       <use xlink:href="#DejaVuSans-33" transform="translate(651.074219 0)"/>
       <use xlink:href="#DejaVuSans-44" transform="translate(714.697266 0)"/>
      </g>
     </g>
    </g>
    <g id="xtick_6">
     <g id="line2d_6">
      <g>
       <use xlink:href="#m3b9d8819e8" x="429.103125" y="177.166645" style="stroke: #000000; stroke-width: 0.8"/>
      </g>
     </g>
     <g id="text_6">
      <!-- c-70 -->
      <g transform="translate(407.877165 198.773567) rotate(-20) scale(0.1 -0.1)">
       <defs>
        <path id="DejaVuSans-2d" d="M 313 2009 
L 1997 2009 
L 1997 1497 
L 313 1497 
L 313 2009 
z
" transform="scale(0.015625)"/>
        <path id="DejaVuSans-37" d="M 525 4666 
L 3525 4666 
L 3525 4397 
L 1831 0 
L 1172 0 
L 2766 4134 
L 525 4134 
L 525 4666 
z
" transform="scale(0.015625)"/>
        <path id="DejaVuSans-30" d="M 2034 4250 
Q 1547 4250 1301 3770 
Q 1056 3291 1056 2328 
Q 1056 1369 1301 889 
Q 1547 409 2034 409 
Q 2525 409 2770 889 
Q 3016 1369 3016 2328 
Q 3016 3291 2770 3770 
Q 2525 4250 2034 4250 
z
M 2034 4750 
Q 2819 4750 3233 4129 
Q 3647 3509 3647 2328 
Q 3647 1150 3233 529 
Q 2819 -91 2034 -91 
Q 1250 -91 836 529 
Q 422 1150 422 2328 
Q 422 3509 836 4129 
Q 1250 4750 2034 4750 
z
" transform="scale(0.015625)"/>
       </defs>
       <use xlink:href="#DejaVuSans-63"/>
       <use xlink:href="#DejaVuSans-2d" transform="translate(54.980469 0)"/>
       <use xlink:href="#DejaVuSans-37" transform="translate(91.064453 0)"/>
       <use xlink:href="#DejaVuSans-30" transform="translate(154.6875 0)"/>
      </g>
     </g>
    </g>
    <g id="xtick_7">
     <g id="line2d_7">
      <g>
       <use xlink:href="#m3b9d8819e8" x="498.853125" y="177.166645" style="stroke: #000000; stroke-width: 0.8"/>
      </g>
     </g>
     <g id="text_7">
      <!-- g7jac200 -->
      <g transform="translate(454.725094 207.10924) rotate(-20) scale(0.1 -0.1)">
       <defs>
        <path id="DejaVuSans-67" d="M 2906 1791 
Q 2906 2416 2648 2759 
Q 2391 3103 1925 3103 
Q 1463 3103 1205 2759 
Q 947 2416 947 1791 
Q 947 1169 1205 825 
Q 1463 481 1925 481 
Q 2391 481 2648 825 
Q 2906 1169 2906 1791 
z
M 3481 434 
Q 3481 -459 3084 -895 
Q 2688 -1331 1869 -1331 
Q 1566 -1331 1297 -1286 
Q 1028 -1241 775 -1147 
L 775 -588 
Q 1028 -725 1275 -790 
Q 1522 -856 1778 -856 
Q 2344 -856 2625 -561 
Q 2906 -266 2906 331 
L 2906 616 
Q 2728 306 2450 153 
Q 2172 0 1784 0 
Q 1141 0 747 490 
Q 353 981 353 1791 
Q 353 2603 747 3093 
Q 1141 3584 1784 3584 
Q 2172 3584 2450 3431 
Q 2728 3278 2906 2969 
L 2906 3500 
L 3481 3500 
L 3481 434 
z
" transform="scale(0.015625)"/>
        <path id="DejaVuSans-6a" d="M 603 3500 
L 1178 3500 
L 1178 -63 
Q 1178 -731 923 -1031 
Q 669 -1331 103 -1331 
L -116 -1331 
L -116 -844 
L 38 -844 
Q 366 -844 484 -692 
Q 603 -541 603 -63 
L 603 3500 
z
M 603 4863 
L 1178 4863 
L 1178 4134 
L 603 4134 
L 603 4863 
z
" transform="scale(0.015625)"/>
       </defs>
       <use xlink:href="#DejaVuSans-67"/>
       <use xlink:href="#DejaVuSans-37" transform="translate(63.476562 0)"/>
       <use xlink:href="#DejaVuSans-6a" transform="translate(127.099609 0)"/>
       <use xlink:href="#DejaVuSans-61" transform="translate(154.882812 0)"/>
       <use xlink:href="#DejaVuSans-63" transform="translate(216.162109 0)"/>
       <use xlink:href="#DejaVuSans-32" transform="translate(271.142578 0)"/>
       <use xlink:href="#DejaVuSans-30" transform="translate(334.765625 0)"/>
       <use xlink:href="#DejaVuSans-30" transform="translate(398.388672 0)"/>
      </g>
     </g>
    </g>
    <g id="xtick_8">
     <g id="line2d_8">
      <g>
       <use xlink:href="#m3b9d8819e8" x="568.603125" y="177.166645" style="stroke: #000000; stroke-width: 0.8"/>
      </g>
     </g>
     <g id="text_8">
      <!-- pkustk04 -->
      <g transform="translate(524.845098 206.974569) rotate(-20) scale(0.1 -0.1)">
       <defs>
        <path id="DejaVuSans-70" d="M 1159 525 
L 1159 -1331 
L 581 -1331 
L 581 3500 
L 1159 3500 
L 1159 2969 
Q 1341 3281 1617 3432 
Q 1894 3584 2278 3584 
Q 2916 3584 3314 3078 
Q 3713 2572 3713 1747 
Q 3713 922 3314 415 
Q 2916 -91 2278 -91 
Q 1894 -91 1617 61 
Q 1341 213 1159 525 
z
M 3116 1747 
Q 3116 2381 2855 2742 
Q 2594 3103 2138 3103 
Q 1681 3103 1420 2742 
Q 1159 2381 1159 1747 
Q 1159 1113 1420 752 
Q 1681 391 2138 391 
Q 2594 391 2855 752 
Q 3116 1113 3116 1747 
z
" transform="scale(0.015625)"/>
        <path id="DejaVuSans-6b" d="M 581 4863 
L 1159 4863 
L 1159 1991 
L 2875 3500 
L 3609 3500 
L 1753 1863 
L 3688 0 
L 2938 0 
L 1159 1709 
L 1159 0 
L 581 0 
L 581 4863 
z
" transform="scale(0.015625)"/>
        <path id="DejaVuSans-34" d="M 2419 4116 
L 825 1625 
L 2419 1625 
L 2419 4116 
z
M 2253 4666 
L 3047 4666 
L 3047 1625 
L 3713 1625 
L 3713 1100 
L 3047 1100 
L 3047 0 
L 2419 0 
L 2419 1100 
L 313 1100 
L 313 1709 
L 2253 4666 
z
" transform="scale(0.015625)"/>
       </defs>
       <use xlink:href="#DejaVuSans-70"/>
       <use xlink:href="#DejaVuSans-6b" transform="translate(63.476562 0)"/>
       <use xlink:href="#DejaVuSans-75" transform="translate(118.261719 0)"/>
       <use xlink:href="#DejaVuSans-73" transform="translate(181.640625 0)"/>
       <use xlink:href="#DejaVuSans-74" transform="translate(233.740234 0)"/>
       <use xlink:href="#DejaVuSans-6b" transform="translate(272.949219 0)"/>
       <use xlink:href="#DejaVuSans-30" transform="translate(330.859375 0)"/>
       <use xlink:href="#DejaVuSans-34" transform="translate(394.482422 0)"/>
      </g>
     </g>
    </g>
    <g id="xtick_9">
     <g id="line2d_9">
      <g>
       <use xlink:href="#m3b9d8819e8" x="638.353125" y="177.166645" style="stroke: #000000; stroke-width: 0.8"/>
      </g>
     </g>
     <g id="text_9">
      <!-- c-67b -->
      <g transform="translate(611.161586 200.944861) rotate(-20) scale(0.1 -0.1)">
       <defs>
        <path id="DejaVuSans-36" d="M 2113 2584 
Q 1688 2584 1439 2293 
Q 1191 2003 1191 1497 
Q 1191 994 1439 701 
Q 1688 409 2113 409 
Q 2538 409 2786 701 
Q 3034 994 3034 1497 
Q 3034 2003 2786 2293 
Q 2538 2584 2113 2584 
z
M 3366 4563 
L 3366 3988 
Q 3128 4100 2886 4159 
Q 2644 4219 2406 4219 
Q 1781 4219 1451 3797 
Q 1122 3375 1075 2522 
Q 1259 2794 1537 2939 
Q 1816 3084 2150 3084 
Q 2853 3084 3261 2657 
Q 3669 2231 3669 1497 
Q 3669 778 3244 343 
Q 2819 -91 2113 -91 
Q 1303 -91 875 529 
Q 447 1150 447 2328 
Q 447 3434 972 4092 
Q 1497 4750 2381 4750 
Q 2619 4750 2861 4703 
Q 3103 4656 3366 4563 
z
" transform="scale(0.015625)"/>
       </defs>
       <use xlink:href="#DejaVuSans-63"/>
       <use xlink:href="#DejaVuSans-2d" transform="translate(54.980469 0)"/>
       <use xlink:href="#DejaVuSans-36" transform="translate(91.064453 0)"/>
       <use xlink:href="#DejaVuSans-37" transform="translate(154.6875 0)"/>
       <use xlink:href="#DejaVuSans-62" transform="translate(218.310547 0)"/>
      </g>
     </g>
    </g>
    <g id="xtick_10">
     <g id="line2d_10">
      <g>
       <use xlink:href="#m3b9d8819e8" x="708.103125" y="177.166645" style="stroke: #000000; stroke-width: 0.8"/>
      </g>
     </g>
     <g id="text_10">
      <!-- me2010 -->
      <g transform="translate(668.541413 205.447236) rotate(-20) scale(0.1 -0.1)">
       <defs>
        <path id="DejaVuSans-65" d="M 3597 1894 
L 3597 1613 
L 953 1613 
Q 991 1019 1311 708 
Q 1631 397 2203 397 
Q 2534 397 2845 478 
Q 3156 559 3463 722 
L 3463 178 
Q 3153 47 2828 -22 
Q 2503 -91 2169 -91 
Q 1331 -91 842 396 
Q 353 884 353 1716 
Q 353 2575 817 3079 
Q 1281 3584 2069 3584 
Q 2775 3584 3186 3129 
Q 3597 2675 3597 1894 
z
M 3022 2063 
Q 3016 2534 2758 2815 
Q 2500 3097 2075 3097 
Q 1594 3097 1305 2825 
Q 1016 2553 972 2059 
L 3022 2063 
z
" transform="scale(0.015625)"/>
        <path id="DejaVuSans-31" d="M 794 531 
L 1825 531 
L 1825 4091 
L 703 3866 
L 703 4441 
L 1819 4666 
L 2450 4666 
L 2450 531 
L 3481 531 
L 3481 0 
L 794 0 
L 794 531 
z
" transform="scale(0.015625)"/>
       </defs>
       <use xlink:href="#DejaVuSans-6d"/>
       <use xlink:href="#DejaVuSans-65" transform="translate(97.412109 0)"/>
       <use xlink:href="#DejaVuSans-32" transform="translate(158.935547 0)"/>
       <use xlink:href="#DejaVuSans-30" transform="translate(222.558594 0)"/>
       <use xlink:href="#DejaVuSans-31" transform="translate(286.181641 0)"/>
       <use xlink:href="#DejaVuSans-30" transform="translate(349.804688 0)"/>
      </g>
     </g>
    </g>
    <g id="xtick_11">
     <g id="line2d_11">
      <g>
       <use xlink:href="#m3b9d8819e8" x="777.853125" y="177.166645" style="stroke: #000000; stroke-width: 0.8"/>
      </g>
     </g>
     <g id="text_11">
      <!-- TSOPF_FS_b300_c2 -->
      <g transform="translate(686.524941 224.254068) rotate(-20) scale(0.1 -0.1)">
       <defs>
        <path id="DejaVuSans-54" d="M -19 4666 
L 3928 4666 
L 3928 4134 
L 2272 4134 
L 2272 0 
L 1638 0 
L 1638 4134 
L -19 4134 
L -19 4666 
z
" transform="scale(0.015625)"/>
        <path id="DejaVuSans-53" d="M 3425 4513 
L 3425 3897 
Q 3066 4069 2747 4153 
Q 2428 4238 2131 4238 
Q 1616 4238 1336 4038 
Q 1056 3838 1056 3469 
Q 1056 3159 1242 3001 
Q 1428 2844 1947 2747 
L 2328 2669 
Q 3034 2534 3370 2195 
Q 3706 1856 3706 1288 
Q 3706 609 3251 259 
Q 2797 -91 1919 -91 
Q 1588 -91 1214 -16 
Q 841 59 441 206 
L 441 856 
Q 825 641 1194 531 
Q 1563 422 1919 422 
Q 2459 422 2753 634 
Q 3047 847 3047 1241 
Q 3047 1584 2836 1778 
Q 2625 1972 2144 2069 
L 1759 2144 
Q 1053 2284 737 2584 
Q 422 2884 422 3419 
Q 422 4038 858 4394 
Q 1294 4750 2059 4750 
Q 2388 4750 2728 4690 
Q 3069 4631 3425 4513 
z
" transform="scale(0.015625)"/>
        <path id="DejaVuSans-50" d="M 1259 4147 
L 1259 2394 
L 2053 2394 
Q 2494 2394 2734 2622 
Q 2975 2850 2975 3272 
Q 2975 3691 2734 3919 
Q 2494 4147 2053 4147 
L 1259 4147 
z
M 628 4666 
L 2053 4666 
Q 2838 4666 3239 4311 
Q 3641 3956 3641 3272 
Q 3641 2581 3239 2228 
Q 2838 1875 2053 1875 
L 1259 1875 
L 1259 0 
L 628 0 
L 628 4666 
z
" transform="scale(0.015625)"/>
        <path id="DejaVuSans-46" d="M 628 4666 
L 3309 4666 
L 3309 4134 
L 1259 4134 
L 1259 2759 
L 3109 2759 
L 3109 2228 
L 1259 2228 
L 1259 0 
L 628 0 
L 628 4666 
z
" transform="scale(0.015625)"/>
       </defs>
       <use xlink:href="#DejaVuSans-54"/>
       <use xlink:href="#DejaVuSans-53" transform="translate(61.083984 0)"/>
       <use xlink:href="#DejaVuSans-4f" transform="translate(124.560547 0)"/>
       <use xlink:href="#DejaVuSans-50" transform="translate(203.271484 0)"/>
       <use xlink:href="#DejaVuSans-46" transform="translate(263.574219 0)"/>
       <use xlink:href="#DejaVuSans-5f" transform="translate(321.09375 0)"/>
       <use xlink:href="#DejaVuSans-46" transform="translate(371.09375 0)"/>
       <use xlink:href="#DejaVuSans-53" transform="translate(426.863281 0)"/>
       <use xlink:href="#DejaVuSans-5f" transform="translate(490.339844 0)"/>
       <use xlink:href="#DejaVuSans-62" transform="translate(540.339844 0)"/>
       <use xlink:href="#DejaVuSans-33" transform="translate(603.816406 0)"/>
       <use xlink:href="#DejaVuSans-30" transform="translate(667.439453 0)"/>
       <use xlink:href="#DejaVuSans-30" transform="translate(731.0625 0)"/>
       <use xlink:href="#DejaVuSans-5f" transform="translate(794.685547 0)"/>
       <use xlink:href="#DejaVuSans-63" transform="translate(844.685547 0)"/>
       <use xlink:href="#DejaVuSans-32" transform="translate(899.666016 0)"/>
      </g>
     </g>
    </g>
    <g id="xtick_12">
     <g id="line2d_12">
      <g>
       <use xlink:href="#m3b9d8819e8" x="847.603125" y="177.166645" style="stroke: #000000; stroke-width: 0.8"/>
      </g>
     </g>
     <g id="text_12">
      <!-- Chebyshev4 -->
      <g transform="translate(788.89224 212.416965) rotate(-20) scale(0.1 -0.1)">
       <defs>
        <path id="DejaVuSans-43" d="M 4122 4306 
L 4122 3641 
Q 3803 3938 3442 4084 
Q 3081 4231 2675 4231 
Q 1875 4231 1450 3742 
Q 1025 3253 1025 2328 
Q 1025 1406 1450 917 
Q 1875 428 2675 428 
Q 3081 428 3442 575 
Q 3803 722 4122 1019 
L 4122 359 
Q 3791 134 3420 21 
Q 3050 -91 2638 -91 
Q 1578 -91 968 557 
Q 359 1206 359 2328 
Q 359 3453 968 4101 
Q 1578 4750 2638 4750 
Q 3056 4750 3426 4639 
Q 3797 4528 4122 4306 
z
" transform="scale(0.015625)"/>
        <path id="DejaVuSans-68" d="M 3513 2113 
L 3513 0 
L 2938 0 
L 2938 2094 
Q 2938 2591 2744 2837 
Q 2550 3084 2163 3084 
Q 1697 3084 1428 2787 
Q 1159 2491 1159 1978 
L 1159 0 
L 581 0 
L 581 4863 
L 1159 4863 
L 1159 2956 
Q 1366 3272 1645 3428 
Q 1925 3584 2291 3584 
Q 2894 3584 3203 3211 
Q 3513 2838 3513 2113 
z
" transform="scale(0.015625)"/>
        <path id="DejaVuSans-79" d="M 2059 -325 
Q 1816 -950 1584 -1140 
Q 1353 -1331 966 -1331 
L 506 -1331 
L 506 -850 
L 844 -850 
Q 1081 -850 1212 -737 
Q 1344 -625 1503 -206 
L 1606 56 
L 191 3500 
L 800 3500 
L 1894 763 
L 2988 3500 
L 3597 3500 
L 2059 -325 
z
" transform="scale(0.015625)"/>
        <path id="DejaVuSans-76" d="M 191 3500 
L 800 3500 
L 1894 563 
L 2988 3500 
L 3597 3500 
L 2284 0 
L 1503 0 
L 191 3500 
z
" transform="scale(0.015625)"/>
       </defs>
       <use xlink:href="#DejaVuSans-43"/>
       <use xlink:href="#DejaVuSans-68" transform="translate(69.824219 0)"/>
       <use xlink:href="#DejaVuSans-65" transform="translate(133.203125 0)"/>
       <use xlink:href="#DejaVuSans-62" transform="translate(194.726562 0)"/>
       <use xlink:href="#DejaVuSans-79" transform="translate(258.203125 0)"/>
       <use xlink:href="#DejaVuSans-73" transform="translate(317.382812 0)"/>
       <use xlink:href="#DejaVuSans-68" transform="translate(369.482422 0)"/>
       <use xlink:href="#DejaVuSans-65" transform="translate(432.861328 0)"/>
       <use xlink:href="#DejaVuSans-76" transform="translate(494.384766 0)"/>
       <use xlink:href="#DejaVuSans-34" transform="translate(553.564453 0)"/>
      </g>
     </g>
    </g>
    <g id="xtick_13">
     <g id="line2d_13">
      <g>
       <use xlink:href="#m3b9d8819e8" x="917.353125" y="177.166645" style="stroke: #000000; stroke-width: 0.8"/>
      </g>
     </g>
     <g id="text_13">
      <!-- mip1 -->
      <g transform="translate(892.933679 199.935902) rotate(-20) scale(0.1 -0.1)">
       <use xlink:href="#DejaVuSans-6d"/>
       <use xlink:href="#DejaVuSans-69" transform="translate(97.412109 0)"/>
       <use xlink:href="#DejaVuSans-70" transform="translate(125.195312 0)"/>
       <use xlink:href="#DejaVuSans-31" transform="translate(188.671875 0)"/>
      </g>
     </g>
    </g>
    <g id="xtick_14">
     <g id="line2d_14">
      <g>
       <use xlink:href="#m3b9d8819e8" x="987.103125" y="177.166645" style="stroke: #000000; stroke-width: 0.8"/>
      </g>
     </g>
     <g id="text_14">
      <!-- pdb1HYS -->
      <g transform="translate(943.744468 206.829211) rotate(-20) scale(0.1 -0.1)">
       <defs>
        <path id="DejaVuSans-59" d="M -13 4666 
L 666 4666 
L 1959 2747 
L 3244 4666 
L 3922 4666 
L 2272 2222 
L 2272 0 
L 1638 0 
L 1638 2222 
L -13 4666 
z
" transform="scale(0.015625)"/>
       </defs>
       <use xlink:href="#DejaVuSans-70"/>
       <use xlink:href="#DejaVuSans-64" transform="translate(63.476562 0)"/>
       <use xlink:href="#DejaVuSans-62" transform="translate(126.953125 0)"/>
       <use xlink:href="#DejaVuSans-31" transform="translate(190.429688 0)"/>
       <use xlink:href="#DejaVuSans-48" transform="translate(254.052734 0)"/>
       <use xlink:href="#DejaVuSans-59" transform="translate(329.248047 0)"/>
       <use xlink:href="#DejaVuSans-53" transform="translate(390.332031 0)"/>
      </g>
     </g>
    </g>
    <g id="xtick_15">
     <g id="line2d_15">
      <g>
       <use xlink:href="#m3b9d8819e8" x="1056.853125" y="177.166645" style="stroke: #000000; stroke-width: 0.8"/>
      </g>
     </g>
     <g id="text_15">
      <!-- k1_san -->
      <g transform="translate(1023.318974 203.218761) rotate(-20) scale(0.1 -0.1)">
       <use xlink:href="#DejaVuSans-6b"/>
       <use xlink:href="#DejaVuSans-31" transform="translate(57.910156 0)"/>
       <use xlink:href="#DejaVuSans-5f" transform="translate(121.533203 0)"/>
       <use xlink:href="#DejaVuSans-73" transform="translate(171.533203 0)"/>
       <use xlink:href="#DejaVuSans-61" transform="translate(223.632812 0)"/>
       <use xlink:href="#DejaVuSans-6e" transform="translate(284.912109 0)"/>
      </g>
     </g>
    </g>
    <g id="xtick_16">
     <g id="line2d_16">
      <g>
       <use xlink:href="#m3b9d8819e8" x="1126.603125" y="177.166645" style="stroke: #000000; stroke-width: 0.8"/>
      </g>
     </g>
     <g id="text_16">
      <!-- enron -->
      <g transform="translate(1098.797849 201.168243) rotate(-20) scale(0.1 -0.1)">
       <defs>
        <path id="DejaVuSans-6f" d="M 1959 3097 
Q 1497 3097 1228 2736 
Q 959 2375 959 1747 
Q 959 1119 1226 758 
Q 1494 397 1959 397 
Q 2419 397 2687 759 
Q 2956 1122 2956 1747 
Q 2956 2369 2687 2733 
Q 2419 3097 1959 3097 
z
M 1959 3584 
Q 2709 3584 3137 3096 
Q 3566 2609 3566 1747 
Q 3566 888 3137 398 
Q 2709 -91 1959 -91 
Q 1206 -91 779 398 
Q 353 888 353 1747 
Q 353 2609 779 3096 
Q 1206 3584 1959 3584 
z
" transform="scale(0.015625)"/>
       </defs>
       <use xlink:href="#DejaVuSans-65"/>
       <use xlink:href="#DejaVuSans-6e" transform="translate(61.523438 0)"/>
       <use xlink:href="#DejaVuSans-72" transform="translate(124.902344 0)"/>
       <use xlink:href="#DejaVuSans-6f" transform="translate(163.765625 0)"/>
       <use xlink:href="#DejaVuSans-6e" transform="translate(224.947266 0)"/>
      </g>
     </g>
    </g>
   </g>
   <g id="matplotlib.axis_2">
    <g id="ytick_1">
     <g id="line2d_17">
      <path d="M 45.478125 146.335197 
L 1161.478125 146.335197 
" clip-path="url(#p7f189c9f7a)" style="fill: none; stroke-dasharray: 2.96,1.28; stroke-dashoffset: 0; stroke: #b0b0b0; stroke-width: 0.8"/>
     </g>
     <g id="line2d_18">
      <defs>
       <path id="me37318c50b" d="M 0 0 
L -3.5 0 
" style="stroke: #000000; stroke-width: 0.8"/>
      </defs>
      <g>
       <use xlink:href="#me37318c50b" x="45.478125" y="146.335197" style="stroke: #000000; stroke-width: 0.8"/>
      </g>
     </g>
     <g id="text_17">
      <!-- $\mathdefault{10^{2}}$ -->
      <g transform="translate(20.878125 150.134415) scale(0.1 -0.1)">
       <use xlink:href="#DejaVuSans-31" transform="translate(0 0.765625)"/>
       <use xlink:href="#DejaVuSans-30" transform="translate(63.623047 0.765625)"/>
       <use xlink:href="#DejaVuSans-32" transform="translate(128.203125 39.046875) scale(0.7)"/>
      </g>
     </g>
    </g>
    <g id="ytick_2">
     <g id="line2d_19">
      <path d="M 45.478125 78.667208 
L 1161.478125 78.667208 
" clip-path="url(#p7f189c9f7a)" style="fill: none; stroke-dasharray: 2.96,1.28; stroke-dashoffset: 0; stroke: #b0b0b0; stroke-width: 0.8"/>
     </g>
     <g id="line2d_20">
      <g>
       <use xlink:href="#me37318c50b" x="45.478125" y="78.667208" style="stroke: #000000; stroke-width: 0.8"/>
      </g>
     </g>
     <g id="text_18">
      <!-- $\mathdefault{10^{3}}$ -->
      <g transform="translate(20.878125 82.466426) scale(0.1 -0.1)">
       <use xlink:href="#DejaVuSans-31" transform="translate(0 0.765625)"/>
       <use xlink:href="#DejaVuSans-30" transform="translate(63.623047 0.765625)"/>
       <use xlink:href="#DejaVuSans-33" transform="translate(128.203125 39.046875) scale(0.7)"/>
      </g>
     </g>
    </g>
    <g id="ytick_3">
     <g id="line2d_21">
      <path d="M 45.478125 10.999219 
L 1161.478125 10.999219 
" clip-path="url(#p7f189c9f7a)" style="fill: none; stroke-dasharray: 2.96,1.28; stroke-dashoffset: 0; stroke: #b0b0b0; stroke-width: 0.8"/>
     </g>
     <g id="line2d_22">
      <g>
       <use xlink:href="#me37318c50b" x="45.478125" y="10.999219" style="stroke: #000000; stroke-width: 0.8"/>
      </g>
     </g>
     <g id="text_19">
      <!-- $\mathdefault{10^{4}}$ -->
      <g transform="translate(20.878125 14.798437) scale(0.1 -0.1)">
       <use xlink:href="#DejaVuSans-31" transform="translate(0 0.684375)"/>
       <use xlink:href="#DejaVuSans-30" transform="translate(63.623047 0.684375)"/>
       <use xlink:href="#DejaVuSans-34" transform="translate(128.203125 38.965625) scale(0.7)"/>
      </g>
     </g>
    </g>
    <g id="ytick_4">
     <g id="line2d_23">
      <path d="M 45.478125 173.262997 
L 1161.478125 173.262997 
" clip-path="url(#p7f189c9f7a)" style="fill: none; stroke-dasharray: 2.96,1.28; stroke-dashoffset: 0; stroke: #b0b0b0; stroke-width: 0.8"/>
     </g>
     <g id="line2d_24">
      <defs>
       <path id="m08aea2fe74" d="M 0 0 
L -2 0 
" style="stroke: #000000; stroke-width: 0.6"/>
      </defs>
      <g>
       <use xlink:href="#m08aea2fe74" x="45.478125" y="173.262997" style="stroke: #000000; stroke-width: 0.6"/>
      </g>
     </g>
    </g>
    <g id="ytick_5">
     <g id="line2d_25">
      <path d="M 45.478125 166.705291 
L 1161.478125 166.705291 
" clip-path="url(#p7f189c9f7a)" style="fill: none; stroke-dasharray: 2.96,1.28; stroke-dashoffset: 0; stroke: #b0b0b0; stroke-width: 0.8"/>
     </g>
     <g id="line2d_26">
      <g>
       <use xlink:href="#m08aea2fe74" x="45.478125" y="166.705291" style="stroke: #000000; stroke-width: 0.6"/>
      </g>
     </g>
    </g>
    <g id="ytick_6">
     <g id="line2d_27">
      <path d="M 45.478125 161.347255 
L 1161.478125 161.347255 
" clip-path="url(#p7f189c9f7a)" style="fill: none; stroke-dasharray: 2.96,1.28; stroke-dashoffset: 0; stroke: #b0b0b0; stroke-width: 0.8"/>
     </g>
     <g id="line2d_28">
      <g>
       <use xlink:href="#m08aea2fe74" x="45.478125" y="161.347255" style="stroke: #000000; stroke-width: 0.6"/>
      </g>
     </g>
    </g>
    <g id="ytick_7">
     <g id="line2d_29">
      <path d="M 45.478125 156.817101 
L 1161.478125 156.817101 
" clip-path="url(#p7f189c9f7a)" style="fill: none; stroke-dasharray: 2.96,1.28; stroke-dashoffset: 0; stroke: #b0b0b0; stroke-width: 0.8"/>
     </g>
     <g id="line2d_30">
      <g>
       <use xlink:href="#m08aea2fe74" x="45.478125" y="156.817101" style="stroke: #000000; stroke-width: 0.6"/>
      </g>
     </g>
    </g>
    <g id="ytick_8">
     <g id="line2d_31">
      <path d="M 45.478125 152.892902 
L 1161.478125 152.892902 
" clip-path="url(#p7f189c9f7a)" style="fill: none; stroke-dasharray: 2.96,1.28; stroke-dashoffset: 0; stroke: #b0b0b0; stroke-width: 0.8"/>
     </g>
     <g id="line2d_32">
      <g>
       <use xlink:href="#m08aea2fe74" x="45.478125" y="152.892902" style="stroke: #000000; stroke-width: 0.6"/>
      </g>
     </g>
    </g>
    <g id="ytick_9">
     <g id="line2d_33">
      <path d="M 45.478125 149.431514 
L 1161.478125 149.431514 
" clip-path="url(#p7f189c9f7a)" style="fill: none; stroke-dasharray: 2.96,1.28; stroke-dashoffset: 0; stroke: #b0b0b0; stroke-width: 0.8"/>
     </g>
     <g id="line2d_34">
      <g>
       <use xlink:href="#m08aea2fe74" x="45.478125" y="149.431514" style="stroke: #000000; stroke-width: 0.6"/>
      </g>
     </g>
    </g>
    <g id="ytick_10">
     <g id="line2d_35">
      <path d="M 45.478125 125.965102 
L 1161.478125 125.965102 
" clip-path="url(#p7f189c9f7a)" style="fill: none; stroke-dasharray: 2.96,1.28; stroke-dashoffset: 0; stroke: #b0b0b0; stroke-width: 0.8"/>
     </g>
     <g id="line2d_36">
      <g>
       <use xlink:href="#m08aea2fe74" x="45.478125" y="125.965102" style="stroke: #000000; stroke-width: 0.6"/>
      </g>
     </g>
    </g>
    <g id="ytick_11">
     <g id="line2d_37">
      <path d="M 45.478125 114.049361 
L 1161.478125 114.049361 
" clip-path="url(#p7f189c9f7a)" style="fill: none; stroke-dasharray: 2.96,1.28; stroke-dashoffset: 0; stroke: #b0b0b0; stroke-width: 0.8"/>
     </g>
     <g id="line2d_38">
      <g>
       <use xlink:href="#m08aea2fe74" x="45.478125" y="114.049361" style="stroke: #000000; stroke-width: 0.6"/>
      </g>
     </g>
    </g>
    <g id="ytick_12">
     <g id="line2d_39">
      <path d="M 45.478125 105.595008 
L 1161.478125 105.595008 
" clip-path="url(#p7f189c9f7a)" style="fill: none; stroke-dasharray: 2.96,1.28; stroke-dashoffset: 0; stroke: #b0b0b0; stroke-width: 0.8"/>
     </g>
     <g id="line2d_40">
      <g>
       <use xlink:href="#m08aea2fe74" x="45.478125" y="105.595008" style="stroke: #000000; stroke-width: 0.6"/>
      </g>
     </g>
    </g>
    <g id="ytick_13">
     <g id="line2d_41">
      <path d="M 45.478125 99.037302 
L 1161.478125 99.037302 
" clip-path="url(#p7f189c9f7a)" style="fill: none; stroke-dasharray: 2.96,1.28; stroke-dashoffset: 0; stroke: #b0b0b0; stroke-width: 0.8"/>
     </g>
     <g id="line2d_42">
      <g>
       <use xlink:href="#m08aea2fe74" x="45.478125" y="99.037302" style="stroke: #000000; stroke-width: 0.6"/>
      </g>
     </g>
    </g>
    <g id="ytick_14">
     <g id="line2d_43">
      <path d="M 45.478125 93.679266 
L 1161.478125 93.679266 
" clip-path="url(#p7f189c9f7a)" style="fill: none; stroke-dasharray: 2.96,1.28; stroke-dashoffset: 0; stroke: #b0b0b0; stroke-width: 0.8"/>
     </g>
     <g id="line2d_44">
      <g>
       <use xlink:href="#m08aea2fe74" x="45.478125" y="93.679266" style="stroke: #000000; stroke-width: 0.6"/>
      </g>
     </g>
    </g>
    <g id="ytick_15">
     <g id="line2d_45">
      <path d="M 45.478125 89.149112 
L 1161.478125 89.149112 
" clip-path="url(#p7f189c9f7a)" style="fill: none; stroke-dasharray: 2.96,1.28; stroke-dashoffset: 0; stroke: #b0b0b0; stroke-width: 0.8"/>
     </g>
     <g id="line2d_46">
      <g>
       <use xlink:href="#m08aea2fe74" x="45.478125" y="89.149112" style="stroke: #000000; stroke-width: 0.6"/>
      </g>
     </g>
    </g>
    <g id="ytick_16">
     <g id="line2d_47">
      <path d="M 45.478125 85.224913 
L 1161.478125 85.224913 
" clip-path="url(#p7f189c9f7a)" style="fill: none; stroke-dasharray: 2.96,1.28; stroke-dashoffset: 0; stroke: #b0b0b0; stroke-width: 0.8"/>
     </g>
     <g id="line2d_48">
      <g>
       <use xlink:href="#m08aea2fe74" x="45.478125" y="85.224913" style="stroke: #000000; stroke-width: 0.6"/>
      </g>
     </g>
    </g>
    <g id="ytick_17">
     <g id="line2d_49">
      <path d="M 45.478125 81.763525 
L 1161.478125 81.763525 
" clip-path="url(#p7f189c9f7a)" style="fill: none; stroke-dasharray: 2.96,1.28; stroke-dashoffset: 0; stroke: #b0b0b0; stroke-width: 0.8"/>
     </g>
     <g id="line2d_50">
      <g>
       <use xlink:href="#m08aea2fe74" x="45.478125" y="81.763525" style="stroke: #000000; stroke-width: 0.6"/>
      </g>
     </g>
    </g>
    <g id="ytick_18">
     <g id="line2d_51">
      <path d="M 45.478125 58.297113 
L 1161.478125 58.297113 
" clip-path="url(#p7f189c9f7a)" style="fill: none; stroke-dasharray: 2.96,1.28; stroke-dashoffset: 0; stroke: #b0b0b0; stroke-width: 0.8"/>
     </g>
     <g id="line2d_52">
      <g>
       <use xlink:href="#m08aea2fe74" x="45.478125" y="58.297113" style="stroke: #000000; stroke-width: 0.6"/>
      </g>
     </g>
    </g>
    <g id="ytick_19">
     <g id="line2d_53">
      <path d="M 45.478125 46.381372 
L 1161.478125 46.381372 
" clip-path="url(#p7f189c9f7a)" style="fill: none; stroke-dasharray: 2.96,1.28; stroke-dashoffset: 0; stroke: #b0b0b0; stroke-width: 0.8"/>
     </g>
     <g id="line2d_54">
      <g>
       <use xlink:href="#m08aea2fe74" x="45.478125" y="46.381372" style="stroke: #000000; stroke-width: 0.6"/>
      </g>
     </g>
    </g>
    <g id="ytick_20">
     <g id="line2d_55">
      <path d="M 45.478125 37.927019 
L 1161.478125 37.927019 
" clip-path="url(#p7f189c9f7a)" style="fill: none; stroke-dasharray: 2.96,1.28; stroke-dashoffset: 0; stroke: #b0b0b0; stroke-width: 0.8"/>
     </g>
     <g id="line2d_56">
      <g>
       <use xlink:href="#m08aea2fe74" x="45.478125" y="37.927019" style="stroke: #000000; stroke-width: 0.6"/>
      </g>
     </g>
    </g>
    <g id="ytick_21">
     <g id="line2d_57">
      <path d="M 45.478125 31.369313 
L 1161.478125 31.369313 
" clip-path="url(#p7f189c9f7a)" style="fill: none; stroke-dasharray: 2.96,1.28; stroke-dashoffset: 0; stroke: #b0b0b0; stroke-width: 0.8"/>
     </g>
     <g id="line2d_58">
      <g>
       <use xlink:href="#m08aea2fe74" x="45.478125" y="31.369313" style="stroke: #000000; stroke-width: 0.6"/>
      </g>
     </g>
    </g>
    <g id="ytick_22">
     <g id="line2d_59">
      <path d="M 45.478125 26.011277 
L 1161.478125 26.011277 
" clip-path="url(#p7f189c9f7a)" style="fill: none; stroke-dasharray: 2.96,1.28; stroke-dashoffset: 0; stroke: #b0b0b0; stroke-width: 0.8"/>
     </g>
     <g id="line2d_60">
      <g>
       <use xlink:href="#m08aea2fe74" x="45.478125" y="26.011277" style="stroke: #000000; stroke-width: 0.6"/>
      </g>
     </g>
    </g>
    <g id="ytick_23">
     <g id="line2d_61">
      <path d="M 45.478125 21.481123 
L 1161.478125 21.481123 
" clip-path="url(#p7f189c9f7a)" style="fill: none; stroke-dasharray: 2.96,1.28; stroke-dashoffset: 0; stroke: #b0b0b0; stroke-width: 0.8"/>
     </g>
     <g id="line2d_62">
      <g>
       <use xlink:href="#m08aea2fe74" x="45.478125" y="21.481123" style="stroke: #000000; stroke-width: 0.6"/>
      </g>
     </g>
    </g>
    <g id="ytick_24">
     <g id="line2d_63">
      <path d="M 45.478125 17.556924 
L 1161.478125 17.556924 
" clip-path="url(#p7f189c9f7a)" style="fill: none; stroke-dasharray: 2.96,1.28; stroke-dashoffset: 0; stroke: #b0b0b0; stroke-width: 0.8"/>
     </g>
     <g id="line2d_64">
      <g>
       <use xlink:href="#m08aea2fe74" x="45.478125" y="17.556924" style="stroke: #000000; stroke-width: 0.6"/>
      </g>
     </g>
    </g>
    <g id="ytick_25">
     <g id="line2d_65">
      <path d="M 45.478125 14.095536 
L 1161.478125 14.095536 
" clip-path="url(#p7f189c9f7a)" style="fill: none; stroke-dasharray: 2.96,1.28; stroke-dashoffset: 0; stroke: #b0b0b0; stroke-width: 0.8"/>
     </g>
     <g id="line2d_66">
      <g>
       <use xlink:href="#m08aea2fe74" x="45.478125" y="14.095536" style="stroke: #000000; stroke-width: 0.6"/>
      </g>
     </g>
    </g>
    <g id="text_20">
     <!-- time [us] -->
     <g transform="translate(14.798438 116.566801) rotate(-90) scale(0.1 -0.1)">
      <defs>
       <path id="DejaVuSans-20" transform="scale(0.015625)"/>
       <path id="DejaVuSans-5b" d="M 550 4863 
L 1875 4863 
L 1875 4416 
L 1125 4416 
L 1125 -397 
L 1875 -397 
L 1875 -844 
L 550 -844 
L 550 4863 
z
" transform="scale(0.015625)"/>
       <path id="DejaVuSans-5d" d="M 1947 4863 
L 1947 -844 
L 622 -844 
L 622 -397 
L 1369 -397 
L 1369 4416 
L 622 4416 
L 622 4863 
L 1947 4863 
z
" transform="scale(0.015625)"/>
      </defs>
      <use xlink:href="#DejaVuSans-74"/>
      <use xlink:href="#DejaVuSans-69" transform="translate(39.208984 0)"/>
      <use xlink:href="#DejaVuSans-6d" transform="translate(66.992188 0)"/>
      <use xlink:href="#DejaVuSans-65" transform="translate(164.404297 0)"/>
      <use xlink:href="#DejaVuSans-20" transform="translate(225.927734 0)"/>
      <use xlink:href="#DejaVuSans-5b" transform="translate(257.714844 0)"/>
      <use xlink:href="#DejaVuSans-75" transform="translate(296.728516 0)"/>
      <use xlink:href="#DejaVuSans-73" transform="translate(360.107422 0)"/>
      <use xlink:href="#DejaVuSans-5d" transform="translate(412.207031 0)"/>
     </g>
    </g>
   </g>
   <g id="line2d_67">
    <path clip-path="url(#p7f189c9f7a)" style="fill: none; stroke: #424242; stroke-width: 2.25; stroke-linecap: square"/>
   </g>
   <g id="line2d_68">
    <path clip-path="url(#p7f189c9f7a)" style="fill: none; stroke: #424242; stroke-width: 2.25; stroke-linecap: square"/>
   </g>
   <g id="line2d_69">
    <path clip-path="url(#p7f189c9f7a)" style="fill: none; stroke: #424242; stroke-width: 2.25; stroke-linecap: square"/>
   </g>
   <g id="line2d_70">
    <path clip-path="url(#p7f189c9f7a)" style="fill: none; stroke: #424242; stroke-width: 2.25; stroke-linecap: square"/>
   </g>
   <g id="line2d_71">
    <path clip-path="url(#p7f189c9f7a)" style="fill: none; stroke: #424242; stroke-width: 2.25; stroke-linecap: square"/>
   </g>
   <g id="line2d_72">
    <path clip-path="url(#p7f189c9f7a)" style="fill: none; stroke: #424242; stroke-width: 2.25; stroke-linecap: square"/>
   </g>
   <g id="line2d_73">
    <path clip-path="url(#p7f189c9f7a)" style="fill: none; stroke: #424242; stroke-width: 2.25; stroke-linecap: square"/>
   </g>
   <g id="line2d_74">
    <path clip-path="url(#p7f189c9f7a)" style="fill: none; stroke: #424242; stroke-width: 2.25; stroke-linecap: square"/>
   </g>
   <g id="line2d_75">
    <path clip-path="url(#p7f189c9f7a)" style="fill: none; stroke: #424242; stroke-width: 2.25; stroke-linecap: square"/>
   </g>
   <g id="line2d_76">
    <path clip-path="url(#p7f189c9f7a)" style="fill: none; stroke: #424242; stroke-width: 2.25; stroke-linecap: square"/>
   </g>
   <g id="line2d_77">
    <path clip-path="url(#p7f189c9f7a)" style="fill: none; stroke: #424242; stroke-width: 2.25; stroke-linecap: square"/>
   </g>
   <g id="line2d_78">
    <path clip-path="url(#p7f189c9f7a)" style="fill: none; stroke: #424242; stroke-width: 2.25; stroke-linecap: square"/>
   </g>
   <g id="line2d_79">
    <path clip-path="url(#p7f189c9f7a)" style="fill: none; stroke: #424242; stroke-width: 2.25; stroke-linecap: square"/>
   </g>
   <g id="line2d_80">
    <path clip-path="url(#p7f189c9f7a)" style="fill: none; stroke: #424242; stroke-width: 2.25; stroke-linecap: square"/>
   </g>
   <g id="line2d_81">
    <path clip-path="url(#p7f189c9f7a)" style="fill: none; stroke: #424242; stroke-width: 2.25; stroke-linecap: square"/>
   </g>
   <g id="line2d_82">
    <path clip-path="url(#p7f189c9f7a)" style="fill: none; stroke: #424242; stroke-width: 2.25; stroke-linecap: square"/>
   </g>
   <g id="line2d_83">
    <path d="M 70.588125 119.339539 
L 70.588125 118.923077 
" clip-path="url(#p7f189c9f7a)" style="fill: none; stroke: #424242; stroke-width: 2.25; stroke-linecap: square"/>
   </g>
   <g id="line2d_84">
    <path d="M 140.338125 105.520161 
L 140.338125 105.259243 
" clip-path="url(#p7f189c9f7a)" style="fill: none; stroke: #424242; stroke-width: 2.25; stroke-linecap: square"/>
   </g>
   <g id="line2d_85">
    <path d="M 210.088125 88.815821 
L 210.088125 88.598776 
" clip-path="url(#p7f189c9f7a)" style="fill: none; stroke: #424242; stroke-width: 2.25; stroke-linecap: square"/>
   </g>
   <g id="line2d_86">
    <path d="M 279.838125 95.742 
L 279.838125 95.517378 
" clip-path="url(#p7f189c9f7a)" style="fill: none; stroke: #424242; stroke-width: 2.25; stroke-linecap: square"/>
   </g>
   <g id="line2d_87">
    <path d="M 349.588125 75.74704 
L 349.588125 75.607726 
" clip-path="url(#p7f189c9f7a)" style="fill: none; stroke: #424242; stroke-width: 2.25; stroke-linecap: square"/>
   </g>
   <g id="line2d_88">
    <path d="M 419.338125 112.487477 
L 419.338125 110.703994 
" clip-path="url(#p7f189c9f7a)" style="fill: none; stroke: #424242; stroke-width: 2.25; stroke-linecap: square"/>
   </g>
   <g id="line2d_89">
    <path d="M 489.088125 109.53936 
L 489.088125 109.260233 
" clip-path="url(#p7f189c9f7a)" style="fill: none; stroke: #424242; stroke-width: 2.25; stroke-linecap: square"/>
   </g>
   <g id="line2d_90">
    <path d="M 558.838125 71.192799 
L 558.838125 70.863233 
" clip-path="url(#p7f189c9f7a)" style="fill: none; stroke: #424242; stroke-width: 2.25; stroke-linecap: square"/>
   </g>
   <g id="line2d_91">
    <path d="M 628.588125 119.061589 
L 628.588125 118.758131 
" clip-path="url(#p7f189c9f7a)" style="fill: none; stroke: #424242; stroke-width: 2.25; stroke-linecap: square"/>
   </g>
   <g id="line2d_92">
    <path d="M 698.338125 86.701638 
L 698.338125 86.463158 
" clip-path="url(#p7f189c9f7a)" style="fill: none; stroke: #424242; stroke-width: 2.25; stroke-linecap: square"/>
   </g>
   <g id="line2d_93">
    <path d="M 768.088125 50.92339 
L 768.088125 50.798266 
" clip-path="url(#p7f189c9f7a)" style="fill: none; stroke: #424242; stroke-width: 2.25; stroke-linecap: square"/>
   </g>
   <g id="line2d_94">
    <path d="M 837.838125 59.57741 
L 837.838125 59.402287 
" clip-path="url(#p7f189c9f7a)" style="fill: none; stroke: #424242; stroke-width: 2.25; stroke-linecap: square"/>
   </g>
   <g id="line2d_95">
    <path d="M 907.588125 48.045957 
L 907.588125 47.947258 
" clip-path="url(#p7f189c9f7a)" style="fill: none; stroke: #424242; stroke-width: 2.25; stroke-linecap: square"/>
   </g>
   <g id="line2d_96">
    <path d="M 977.338125 70.521519 
L 977.338125 70.257058 
" clip-path="url(#p7f189c9f7a)" style="fill: none; stroke: #424242; stroke-width: 2.25; stroke-linecap: square"/>
   </g>
   <g id="line2d_97">
    <path d="M 1047.088125 111.517587 
L 1047.088125 110.777033 
" clip-path="url(#p7f189c9f7a)" style="fill: none; stroke: #424242; stroke-width: 2.25; stroke-linecap: square"/>
   </g>
   <g id="line2d_98">
    <path d="M 1116.838125 116.376341 
L 1116.838125 111.357318 
" clip-path="url(#p7f189c9f7a)" style="fill: none; stroke: #424242; stroke-width: 2.25; stroke-linecap: square"/>
   </g>
   <g id="line2d_99">
    <path d="M 80.353125 169.606645 
L 80.353125 167.952673 
" clip-path="url(#p7f189c9f7a)" style="fill: none; stroke: #424242; stroke-width: 2.25; stroke-linecap: square"/>
   </g>
   <g id="line2d_100">
    <path d="M 150.103125 168.994376 
L 150.103125 162.619015 
" clip-path="url(#p7f189c9f7a)" style="fill: none; stroke: #424242; stroke-width: 2.25; stroke-linecap: square"/>
   </g>
   <g id="line2d_101">
    <path d="M 219.853125 166.946634 
L 219.853125 153.11659 
" clip-path="url(#p7f189c9f7a)" style="fill: none; stroke: #424242; stroke-width: 2.25; stroke-linecap: square"/>
   </g>
   <g id="line2d_102">
    <path d="M 289.603125 166.317619 
L 289.603125 156.281627 
" clip-path="url(#p7f189c9f7a)" style="fill: none; stroke: #424242; stroke-width: 2.25; stroke-linecap: square"/>
   </g>
   <g id="line2d_103">
    <path d="M 359.353125 143.558033 
L 359.353125 141.885355 
" clip-path="url(#p7f189c9f7a)" style="fill: none; stroke: #424242; stroke-width: 2.25; stroke-linecap: square"/>
   </g>
   <g id="line2d_104">
    <path d="M 429.103125 161.718398 
L 429.103125 145.230296 
" clip-path="url(#p7f189c9f7a)" style="fill: none; stroke: #424242; stroke-width: 2.25; stroke-linecap: square"/>
   </g>
   <g id="line2d_105">
    <path d="M 498.853125 166.525799 
L 498.853125 165.098594 
" clip-path="url(#p7f189c9f7a)" style="fill: none; stroke: #424242; stroke-width: 2.25; stroke-linecap: square"/>
   </g>
   <g id="line2d_106">
    <path d="M 568.603125 146.577423 
L 568.603125 144.7285 
" clip-path="url(#p7f189c9f7a)" style="fill: none; stroke: #424242; stroke-width: 2.25; stroke-linecap: square"/>
   </g>
   <g id="line2d_107">
    <path d="M 638.353125 154.286857 
L 638.353125 153.560075 
" clip-path="url(#p7f189c9f7a)" style="fill: none; stroke: #424242; stroke-width: 2.25; stroke-linecap: square"/>
   </g>
   <g id="line2d_108">
    <path d="M 708.103125 168.320485 
L 708.103125 167.230577 
" clip-path="url(#p7f189c9f7a)" style="fill: none; stroke: #424242; stroke-width: 2.25; stroke-linecap: square"/>
   </g>
   <g id="line2d_109">
    <path d="M 777.853125 87.580347 
L 777.853125 87.193846 
" clip-path="url(#p7f189c9f7a)" style="fill: none; stroke: #424242; stroke-width: 2.25; stroke-linecap: square"/>
   </g>
   <g id="line2d_110">
    <path d="M 847.603125 86.531752 
L 847.603125 86.35374 
" clip-path="url(#p7f189c9f7a)" style="fill: none; stroke: #424242; stroke-width: 2.25; stroke-linecap: square"/>
   </g>
   <g id="line2d_111">
    <path d="M 917.353125 114.243646 
L 917.353125 113.800311 
" clip-path="url(#p7f189c9f7a)" style="fill: none; stroke: #424242; stroke-width: 2.25; stroke-linecap: square"/>
   </g>
   <g id="line2d_112">
    <path d="M 987.103125 145.399484 
L 987.103125 144.464338 
" clip-path="url(#p7f189c9f7a)" style="fill: none; stroke: #424242; stroke-width: 2.25; stroke-linecap: square"/>
   </g>
   <g id="line2d_113">
    <path d="M 1056.853125 167.952673 
L 1056.853125 166.386849 
" clip-path="url(#p7f189c9f7a)" style="fill: none; stroke: #424242; stroke-width: 2.25; stroke-linecap: square"/>
   </g>
   <g id="line2d_114">
    <path d="M 1126.603125 158.527624 
L 1126.603125 157.485393 
" clip-path="url(#p7f189c9f7a)" style="fill: none; stroke: #424242; stroke-width: 2.25; stroke-linecap: square"/>
   </g>
   <g id="line2d_115">
    <path d="M 90.118125 123.298028 
L 90.118125 120.423964 
" clip-path="url(#p7f189c9f7a)" style="fill: none; stroke: #424242; stroke-width: 2.25; stroke-linecap: square"/>
   </g>
   <g id="line2d_116">
    <path d="M 159.868125 97.103943 
L 159.868125 89.82863 
" clip-path="url(#p7f189c9f7a)" style="fill: none; stroke: #424242; stroke-width: 2.25; stroke-linecap: square"/>
   </g>
   <g id="line2d_117">
    <path d="M 229.618125 74.37363 
L 229.618125 68.842059 
" clip-path="url(#p7f189c9f7a)" style="fill: none; stroke: #424242; stroke-width: 2.25; stroke-linecap: square"/>
   </g>
   <g id="line2d_118">
    <path d="M 299.368125 86.558818 
L 299.368125 86.290959 
" clip-path="url(#p7f189c9f7a)" style="fill: none; stroke: #424242; stroke-width: 2.25; stroke-linecap: square"/>
   </g>
   <g id="line2d_119">
    <path d="M 369.118125 56.557005 
L 369.118125 51.284497 
" clip-path="url(#p7f189c9f7a)" style="fill: none; stroke: #424242; stroke-width: 2.25; stroke-linecap: square"/>
   </g>
   <g id="line2d_120">
    <path d="M 438.868125 100.575652 
L 438.868125 100.05387 
" clip-path="url(#p7f189c9f7a)" style="fill: none; stroke: #424242; stroke-width: 2.25; stroke-linecap: square"/>
   </g>
   <g id="line2d_121">
    <path d="M 508.618125 99.037302 
L 508.618125 94.777072 
" clip-path="url(#p7f189c9f7a)" style="fill: none; stroke: #424242; stroke-width: 2.25; stroke-linecap: square"/>
   </g>
   <g id="line2d_122">
    <path d="M 578.368125 50.882153 
L 578.368125 47.662788 
" clip-path="url(#p7f189c9f7a)" style="fill: none; stroke: #424242; stroke-width: 2.25; stroke-linecap: square"/>
   </g>
   <g id="line2d_123">
    <path d="M 648.118125 112.244694 
L 648.118125 111.924013 
" clip-path="url(#p7f189c9f7a)" style="fill: none; stroke: #424242; stroke-width: 2.25; stroke-linecap: square"/>
   </g>
   <g id="line2d_124">
    <path d="M 717.868125 91.417548 
L 717.868125 89.742826 
" clip-path="url(#p7f189c9f7a)" style="fill: none; stroke: #424242; stroke-width: 2.25; stroke-linecap: square"/>
   </g>
   <g id="line2d_125">
    <path d="M 787.618125 24.365494 
L 787.618125 22.878248 
" clip-path="url(#p7f189c9f7a)" style="fill: none; stroke: #424242; stroke-width: 2.25; stroke-linecap: square"/>
   </g>
   <g id="line2d_126">
    <path d="M 857.368125 39.745403 
L 857.368125 38.505743 
" clip-path="url(#p7f189c9f7a)" style="fill: none; stroke: #424242; stroke-width: 2.25; stroke-linecap: square"/>
   </g>
   <g id="line2d_127">
    <path d="M 927.118125 19.072058 
L 927.118125 18.406645 
" clip-path="url(#p7f189c9f7a)" style="fill: none; stroke: #424242; stroke-width: 2.25; stroke-linecap: square"/>
   </g>
   <g id="line2d_128">
    <path d="M 996.868125 49.817057 
L 996.868125 45.238181 
" clip-path="url(#p7f189c9f7a)" style="fill: none; stroke: #424242; stroke-width: 2.25; stroke-linecap: square"/>
   </g>
   <g id="line2d_129">
    <path d="M 1066.618125 109.435361 
L 1066.618125 106.98663 
" clip-path="url(#p7f189c9f7a)" style="fill: none; stroke: #424242; stroke-width: 2.25; stroke-linecap: square"/>
   </g>
   <g id="line2d_130">
    <path d="M 1136.368125 112.429524 
L 1136.368125 109.519206 
" clip-path="url(#p7f189c9f7a)" style="fill: none; stroke: #424242; stroke-width: 2.25; stroke-linecap: square"/>
   </g>
   <g id="line2d_131">
    <path d="M 99.883125 151.284656 
L 99.883125 147.688328 
" clip-path="url(#p7f189c9f7a)" style="fill: none; stroke: #424242; stroke-width: 2.25; stroke-linecap: square"/>
   </g>
   <g id="line2d_132">
    <path d="M 169.633125 147.382202 
L 169.633125 136.237839 
" clip-path="url(#p7f189c9f7a)" style="fill: none; stroke: #424242; stroke-width: 2.25; stroke-linecap: square"/>
   </g>
   <g id="line2d_133">
    <path d="M 239.383125 143.004712 
L 239.383125 125.527558 
" clip-path="url(#p7f189c9f7a)" style="fill: none; stroke: #424242; stroke-width: 2.25; stroke-linecap: square"/>
   </g>
   <g id="line2d_134">
    <path d="M 309.133125 140.013539 
L 309.133125 131.618495 
" clip-path="url(#p7f189c9f7a)" style="fill: none; stroke: #424242; stroke-width: 2.25; stroke-linecap: square"/>
   </g>
   <g id="line2d_135">
    <path d="M 378.883125 130.312154 
L 378.883125 117.584311 
" clip-path="url(#p7f189c9f7a)" style="fill: none; stroke: #424242; stroke-width: 2.25; stroke-linecap: square"/>
   </g>
   <g id="line2d_136">
    <path d="M 448.633125 147.534867 
L 448.633125 137.515773 
" clip-path="url(#p7f189c9f7a)" style="fill: none; stroke: #424242; stroke-width: 2.25; stroke-linecap: square"/>
   </g>
   <g id="line2d_137">
    <path d="M 518.383125 152.346983 
L 518.383125 143.937737 
" clip-path="url(#p7f189c9f7a)" style="fill: none; stroke: #424242; stroke-width: 2.25; stroke-linecap: square"/>
   </g>
   <g id="line2d_138">
    <path d="M 588.133125 127.318234 
L 588.133125 112.991092 
" clip-path="url(#p7f189c9f7a)" style="fill: none; stroke: #424242; stroke-width: 2.25; stroke-linecap: square"/>
   </g>
   <g id="line2d_139">
    <path d="M 657.883125 132.160005 
L 657.883125 130.312154 
" clip-path="url(#p7f189c9f7a)" style="fill: none; stroke: #424242; stroke-width: 2.25; stroke-linecap: square"/>
   </g>
   <g id="line2d_140">
    <path d="M 727.633125 146.630554 
L 727.633125 143.400958 
" clip-path="url(#p7f189c9f7a)" style="fill: none; stroke: #424242; stroke-width: 2.25; stroke-linecap: square"/>
   </g>
   <g id="line2d_141">
    <path d="M 797.383125 62.832166 
L 797.383125 50.364966 
" clip-path="url(#p7f189c9f7a)" style="fill: none; stroke: #424242; stroke-width: 2.25; stroke-linecap: square"/>
   </g>
   <g id="line2d_142">
    <path d="M 867.133125 71.126926 
L 867.133125 48.981225 
" clip-path="url(#p7f189c9f7a)" style="fill: none; stroke: #424242; stroke-width: 2.25; stroke-linecap: square"/>
   </g>
   <g id="line2d_143">
    <path d="M 936.883125 97.547541 
L 936.883125 51.371434 
" clip-path="url(#p7f189c9f7a)" style="fill: none; stroke: #424242; stroke-width: 2.25; stroke-linecap: square"/>
   </g>
   <g id="line2d_144">
    <path d="M 1006.633125 130.227096 
L 1006.633125 114.344718 
" clip-path="url(#p7f189c9f7a)" style="fill: none; stroke: #424242; stroke-width: 2.25; stroke-linecap: square"/>
   </g>
   <g id="line2d_145">
    <path d="M 1076.383125 151.459065 
L 1076.383125 146.335197 
" clip-path="url(#p7f189c9f7a)" style="fill: none; stroke: #424242; stroke-width: 2.25; stroke-linecap: square"/>
   </g>
   <g id="line2d_146">
    <path d="M 1146.133125 144.901359 
L 1146.133125 142.1004 
" clip-path="url(#p7f189c9f7a)" style="fill: none; stroke: #424242; stroke-width: 2.25; stroke-linecap: square"/>
   </g>
   <g id="patch_88">
    <path d="M 45.478125 177.166645 
L 45.478125 10.846645 
" style="fill: none; stroke: #000000; stroke-width: 0.8; stroke-linejoin: miter; stroke-linecap: square"/>
   </g>
   <g id="patch_89">
    <path d="M 45.478125 177.166645 
L 1161.478125 177.166645 
" style="fill: none; stroke: #000000; stroke-width: 0.8; stroke-linejoin: miter; stroke-linecap: square"/>
   </g>
   <g id="legend_1">
    <g id="patch_90">
     <path d="M 52.478125 48.202895 
L 342.707812 48.202895 
Q 344.707812 48.202895 344.707812 46.202895 
L 344.707812 17.846645 
Q 344.707812 15.846645 342.707812 15.846645 
L 52.478125 15.846645 
Q 50.478125 15.846645 50.478125 17.846645 
L 50.478125 46.202895 
Q 50.478125 48.202895 52.478125 48.202895 
z
" style="fill: #ffffff; opacity: 0.8; stroke: #cccccc; stroke-linejoin: miter"/>
    </g>
    <g id="patch_91">
     <path d="M 54.478125 27.445082 
L 74.478125 27.445082 
L 74.478125 20.445082 
L 54.478125 20.445082 
z
" style="fill: #f0da9e; stroke: #000000; stroke-linejoin: miter"/>
    </g>
    <g id="text_21">
     <!-- Ascend910B4 -->
     <g transform="translate(82.478125 27.445082) scale(0.1 -0.1)">
      <defs>
       <path id="DejaVuSans-41" d="M 2188 4044 
L 1331 1722 
L 3047 1722 
L 2188 4044 
z
M 1831 4666 
L 2547 4666 
L 4325 0 
L 3669 0 
L 3244 1197 
L 1141 1197 
L 716 0 
L 50 0 
L 1831 4666 
z
" transform="scale(0.015625)"/>
       <path id="DejaVuSans-39" d="M 703 97 
L 703 672 
Q 941 559 1184 500 
Q 1428 441 1663 441 
Q 2288 441 2617 861 
Q 2947 1281 2994 2138 
Q 2813 1869 2534 1725 
Q 2256 1581 1919 1581 
Q 1219 1581 811 2004 
Q 403 2428 403 3163 
Q 403 3881 828 4315 
Q 1253 4750 1959 4750 
Q 2769 4750 3195 4129 
Q 3622 3509 3622 2328 
Q 3622 1225 3098 567 
Q 2575 -91 1691 -91 
Q 1453 -91 1209 -44 
Q 966 3 703 97 
z
M 1959 2075 
Q 2384 2075 2632 2365 
Q 2881 2656 2881 3163 
Q 2881 3666 2632 3958 
Q 2384 4250 1959 4250 
Q 1534 4250 1286 3958 
Q 1038 3666 1038 3163 
Q 1038 2656 1286 2365 
Q 1534 2075 1959 2075 
z
" transform="scale(0.015625)"/>
       <path id="DejaVuSans-42" d="M 1259 2228 
L 1259 519 
L 2272 519 
Q 2781 519 3026 730 
Q 3272 941 3272 1375 
Q 3272 1813 3026 2020 
Q 2781 2228 2272 2228 
L 1259 2228 
z
M 1259 4147 
L 1259 2741 
L 2194 2741 
Q 2656 2741 2882 2914 
Q 3109 3088 3109 3444 
Q 3109 3797 2882 3972 
Q 2656 4147 2194 4147 
L 1259 4147 
z
M 628 4666 
L 2241 4666 
Q 2963 4666 3353 4366 
Q 3744 4066 3744 3513 
Q 3744 3084 3544 2831 
Q 3344 2578 2956 2516 
Q 3422 2416 3680 2098 
Q 3938 1781 3938 1306 
Q 3938 681 3513 340 
Q 3088 0 2303 0 
L 628 0 
L 628 4666 
z
" transform="scale(0.015625)"/>
      </defs>
      <use xlink:href="#DejaVuSans-41"/>
      <use xlink:href="#DejaVuSans-73" transform="translate(68.408203 0)"/>
      <use xlink:href="#DejaVuSans-63" transform="translate(120.507812 0)"/>
      <use xlink:href="#DejaVuSans-65" transform="translate(175.488281 0)"/>
      <use xlink:href="#DejaVuSans-6e" transform="translate(237.011719 0)"/>
      <use xlink:href="#DejaVuSans-64" transform="translate(300.390625 0)"/>
      <use xlink:href="#DejaVuSans-39" transform="translate(363.867188 0)"/>
      <use xlink:href="#DejaVuSans-31" transform="translate(427.490234 0)"/>
      <use xlink:href="#DejaVuSans-30" transform="translate(491.113281 0)"/>
      <use xlink:href="#DejaVuSans-42" transform="translate(554.736328 0)"/>
      <use xlink:href="#DejaVuSans-34" transform="translate(623.339844 0)"/>
     </g>
    </g>
    <g id="patch_92">
     <path d="M 54.478125 42.123207 
L 74.478125 42.123207 
L 74.478125 35.123207 
L 54.478125 35.123207 
z
" style="fill: #9abdd2; stroke: #000000; stroke-linejoin: miter"/>
    </g>
    <g id="text_22">
     <!-- MKL 1T -->
     <g transform="translate(82.478125 42.123207) scale(0.1 -0.1)">
      <defs>
       <path id="DejaVuSans-4d" d="M 628 4666 
L 1569 4666 
L 2759 1491 
L 3956 4666 
L 4897 4666 
L 4897 0 
L 4281 0 
L 4281 4097 
L 3078 897 
L 2444 897 
L 1241 4097 
L 1241 0 
L 628 0 
L 628 4666 
z
" transform="scale(0.015625)"/>
       <path id="DejaVuSans-4b" d="M 628 4666 
L 1259 4666 
L 1259 2694 
L 3353 4666 
L 4166 4666 
L 1850 2491 
L 4331 0 
L 3500 0 
L 1259 2247 
L 1259 0 
L 628 0 
L 628 4666 
z
" transform="scale(0.015625)"/>
       <path id="DejaVuSans-4c" d="M 628 4666 
L 1259 4666 
L 1259 531 
L 3531 531 
L 3531 0 
L 628 0 
L 628 4666 
z
" transform="scale(0.015625)"/>
      </defs>
      <use xlink:href="#DejaVuSans-4d"/>
      <use xlink:href="#DejaVuSans-4b" transform="translate(86.279297 0)"/>
      <use xlink:href="#DejaVuSans-4c" transform="translate(151.855469 0)"/>
      <use xlink:href="#DejaVuSans-20" transform="translate(207.568359 0)"/>
      <use xlink:href="#DejaVuSans-31" transform="translate(239.355469 0)"/>
      <use xlink:href="#DejaVuSans-54" transform="translate(302.978516 0)"/>
     </g>
    </g>
    <g id="patch_93">
     <path d="M 171.176562 27.445082 
L 191.176562 27.445082 
L 191.176562 20.445082 
L 171.176562 20.445082 
z
" style="fill: #5377a6; stroke: #000000; stroke-linejoin: miter"/>
    </g>
    <g id="text_23">
     <!-- MKL 32T -->
     <g transform="translate(199.176562 27.445082) scale(0.1 -0.1)">
      <use xlink:href="#DejaVuSans-4d"/>
      <use xlink:href="#DejaVuSans-4b" transform="translate(86.279297 0)"/>
      <use xlink:href="#DejaVuSans-4c" transform="translate(151.855469 0)"/>
      <use xlink:href="#DejaVuSans-20" transform="translate(207.568359 0)"/>
      <use xlink:href="#DejaVuSans-33" transform="translate(239.355469 0)"/>
      <use xlink:href="#DejaVuSans-32" transform="translate(302.978516 0)"/>
      <use xlink:href="#DejaVuSans-54" transform="translate(366.601562 0)"/>
     </g>
    </g>
    <g id="patch_94">
     <path d="M 171.176562 42.123207 
L 191.176562 42.123207 
L 191.176562 35.123207 
L 171.176562 35.123207 
z
" style="fill: #e8946d; stroke: #000000; stroke-linejoin: miter"/>
    </g>
    <g id="text_24">
     <!-- Eigen 1T -->
     <g transform="translate(199.176562 42.123207) scale(0.1 -0.1)">
      <defs>
       <path id="DejaVuSans-45" d="M 628 4666 
L 3578 4666 
L 3578 4134 
L 1259 4134 
L 1259 2753 
L 3481 2753 
L 3481 2222 
L 1259 2222 
L 1259 531 
L 3634 531 
L 3634 0 
L 628 0 
L 628 4666 
z
" transform="scale(0.015625)"/>
      </defs>
      <use xlink:href="#DejaVuSans-45"/>
      <use xlink:href="#DejaVuSans-69" transform="translate(63.183594 0)"/>
      <use xlink:href="#DejaVuSans-67" transform="translate(90.966797 0)"/>
      <use xlink:href="#DejaVuSans-65" transform="translate(154.443359 0)"/>
      <use xlink:href="#DejaVuSans-6e" transform="translate(215.966797 0)"/>
      <use xlink:href="#DejaVuSans-20" transform="translate(279.345703 0)"/>
      <use xlink:href="#DejaVuSans-31" transform="translate(311.132812 0)"/>
      <use xlink:href="#DejaVuSans-54" transform="translate(374.755859 0)"/>
     </g>
    </g>
    <g id="patch_95">
     <path d="M 262.760937 27.445082 
L 282.760937 27.445082 
L 282.760937 20.445082 
L 262.760937 20.445082 
z
" style="fill: #c1443d; stroke: #000000; stroke-linejoin: miter"/>
    </g>
    <g id="text_25">
     <!-- Eigen 32T -->
     <g transform="translate(290.760937 27.445082) scale(0.1 -0.1)">
      <use xlink:href="#DejaVuSans-45"/>
      <use xlink:href="#DejaVuSans-69" transform="translate(63.183594 0)"/>
      <use xlink:href="#DejaVuSans-67" transform="translate(90.966797 0)"/>
      <use xlink:href="#DejaVuSans-65" transform="translate(154.443359 0)"/>
      <use xlink:href="#DejaVuSans-6e" transform="translate(215.966797 0)"/>
      <use xlink:href="#DejaVuSans-20" transform="translate(279.345703 0)"/>
      <use xlink:href="#DejaVuSans-33" transform="translate(311.132812 0)"/>
      <use xlink:href="#DejaVuSans-32" transform="translate(374.755859 0)"/>
      <use xlink:href="#DejaVuSans-54" transform="translate(438.378906 0)"/>
     </g>
    </g>
   </g>
  </g>
 </g>
 <defs>
  <clipPath id="p7f189c9f7a">
   <rect x="45.478125" y="10.846645" width="1116" height="166.32"/>
  </clipPath>
 </defs>
</svg>
